<svg xmlns="http://www.w3.org/2000/svg" width="50" height="50" viewBox="0 0 50 50"><g fill="#E14141"><path d="M36 36.4h3.36v.3H36zM17.86 36.4h13.88v.3H17.86zM10.64 36.4H14v.3h-3.36zM17.43 39.17H14.4c-.36 0-.66-.3-.66-.66V34.1h.3v4.43c0 .2.17.36.36.36h3.03c.2 0 .35-.15.35-.35V34.1h.3v4.43c0 .38-.3.67-.65.67zM35.5 39.17h-3.04c-.36 0-.66-.3-.66-.66v-4h.3v4c0 .2.17.36.36.36h3.03c.18 0 .34-.15.34-.35v-4.15h.3v4.16c0 .38-.3.67-.65.67zM35.94 34.46H14.06c-.17 0-.32-.14-.32-.32v-20.5c0-.18.15-.32.32-.32h21.88c.17 0 .32.15.32.32v20.5c0 .17-.15.32-.32.32zM14.06 13.63v20.5l21.88.02v-20.5l-21.88-.02zM14.05 25.4H36.1v.3H14.06zM36.1 15.27M13.62 15.27"/><path d="M14.05 26.4H10.5v-2.57h3.55v2.56zm-3.25-.32h2.94v-1.94H10.8v1.94zM17.93 31.13h14.03v.3H17.93zM17.93 32.53h14.03v.3H17.93zM31.25 31.06h-.3V26.9H19.3v4.16H19V26.6l12.25-.02zM17.93 28.1h14.03v.3H17.93zM17.93 29.76h14.03v.3H17.93zM31.96 29.66M36.1 25.77M13.62 25.77"/><path d="M14.05 15.33H36.1v.3H14.06zM39.5 26.6h-3.55v-2.56h3.56v2.55zm-3.24-.3h2.94v-1.95h-2.94v1.94zM16.15 29.1c-.8 0-1.44-.65-1.44-1.44s.65-1.45 1.45-1.45 1.44.66 1.44 1.46-.65 1.44-1.45 1.44zm0-2.58c-.63 0-1.14.5-1.14 1.14 0 .62.52 1.13 1.15 1.13s1.14-.52 1.14-1.14c0-.63-.52-1.14-1.15-1.14zM33.98 29.1c-.8 0-1.45-.65-1.45-1.44s.65-1.45 1.45-1.45 1.44.66 1.44 1.46-.65 1.44-1.44 1.44zm0-2.58c-.63 0-1.14.5-1.14 1.14 0 .62.5 1.13 1.14 1.13.62 0 1.13-.52 1.13-1.14 0-.63-.5-1.14-1.12-1.14z"/></g><path fill="#E14141" d="M25 48.72C11.92 48.72 1.28 38.08 1.28 25 1.28 11.92 11.92 1.28 25 1.28c13.08 0 23.72 10.64 23.72 23.72 0 13.08-10.64 23.72-23.72 23.72zM25 1.9C12.26 1.9 1.9 12.25 1.9 25c0 12.74 10.36 23.1 23.1 23.1 12.74 0 23.1-10.36 23.1-23.1C48.1 12.26 37.75 1.9 25 1.9z"/></svg>