<svg xmlns="http://www.w3.org/2000/svg" width="50" height="50" viewBox="0 0 50 50"><path fill="#454545" d="M25 48.72C11.92 48.72 1.28 38.08 1.28 25 1.28 11.92 11.92 1.28 25 1.28c13.08 0 23.72 10.64 23.72 23.72 0 13.08-10.64 23.72-23.72 23.72zM25 1.9C12.26 1.9 1.9 12.25 1.9 25c0 12.74 10.36 23.1 23.1 23.1 12.74 0 23.1-10.36 23.1-23.1C48.1 12.26 37.75 1.9 25 1.9z"/><g fill="#454545"><path d="M35.94 33.72c-3.1 0-5.62-2.52-5.62-5.62s2.52-5.62 5.62-5.62 5.62 2.52 5.62 5.62-2.52 5.62-5.62 5.62zm0-10.94c-2.93 0-5.3 2.4-5.3 5.32 0 2.93 2.37 5.3 5.3 5.3 2.93 0 5.3-2.37 5.3-5.3.02-2.93-2.37-5.32-5.3-5.32zM13.1 33.72c-3.1 0-5.6-2.52-5.6-5.62s2.5-5.62 5.6-5.62c3.1 0 5.63 2.52 5.63 5.62s-2.52 5.62-5.62 5.62zm0-10.94c-2.92 0-5.3 2.4-5.3 5.32 0 2.93 2.38 5.3 5.3 5.3 2.94 0 5.33-2.37 5.33-5.3 0-2.93-2.38-5.32-5.32-5.32zM12.8 28.64l-.23-.22.4-.4 4.24-11.12-1.7-.88v-.1c0-.02 0-.25.26-.46.37-.32 1.3-.6 3.55-.2l-.05.3c-2.25-.4-3.03-.1-3.3.13-.06.05-.1.1-.12.15l1.77.9-4.38 11.45-.43.44zM35.28 28.92h-10.2l-9.53-7.36.2-.24 9.45 7.3h9.66l-2.5-8.02-15.84-1.33.03-.3 16.03 1.35zM31.6 18.38h5.43v.3H31.6zM34.2 18.43l.23.2-9.18 10.24-.23-.2zM25.17 30.58c-1.2 0-2.17-.98-2.17-2.17 0-1.2.97-2.17 2.17-2.17s2.18.98 2.18 2.18c0 1.2-.98 2.18-2.18 2.18zm0-4.04c-1.03 0-1.86.84-1.86 1.87 0 1.03.84 1.87 1.87 1.87 1.03 0 1.87-.84 1.87-1.86s-.84-1.86-1.87-1.86zM26.1 30.37l.9 2.15-.28.12-.9-2.16zM23.65 24.17l.9 2.16-.28.1-.9-2.14zM22.42 24.07h2v.3h-2zM25.86 32.43h2v.3h-2z"/></g></svg>