<svg xmlns="http://www.w3.org/2000/svg" width="50" height="50" viewBox="0 0 50 50"><g fill="#F8BB21"><path d="M26.87 16.36c-1.3 0-2.37-1.07-2.37-2.38s1.06-2.37 2.37-2.37c1.32 0 2.38 1.07 2.38 2.38s-1.06 2.38-2.38 2.38zm0-4.45c-1.14 0-2.07.94-2.07 2.08 0 1.15.93 2.07 2.07 2.07 1.15 0 2.07-.92 2.07-2.07 0-1.14-.92-2.07-2.07-2.07zM18.32 39c-.22 0-.43-.05-.6-.17-.26-.16-.43-.42-.5-.74-.1-.42 0-.88.26-1.27l3.38-5.2c0-.03.03-.05.04-.07l.85-5.3c0-.16 0-.3.05-.47l1.06-4.82-2.2 1.17-.7 3.65c-.1.56-.66.96-1.25.85-.57-.1-.95-.67-.84-1.25l.75-3.96c.07-.32.27-.6.55-.74l.24-.16L24.17 18c.23-.17.5-.3.8-.4.17-.05.35-.08.52-.08H25.65c.15 0 .32 0 .48.05.33.07.63.2.9.42.23.1.44.3.57.58l.05.1c.07.12.14.27.2.42l2 4.14 3.17 1.4c.5.22.7.84.48 1.37-.18.4-.56.67-.97.67-.13 0-.26-.03-.38-.08l-3.4-1.5c-.25-.13-.44-.36-.52-.66l-.1-.14-.67-1.4-.9 4.04 3.64 4.33.16.23c.13.17.23.38.28.6l1.1 5.26c.16.74-.28 1.47-.97 1.62-.7.14-1.38-.36-1.54-1.1l-1.08-5.14-3.47-4.16c-.23-.1-.44-.17-.65-.22h-.07l-.6 3.8-.1.33c-.05.16-.14.35-.25.52l-3.37 5.2c-.3.5-.82.8-1.3.8zm4.98-18.6l-1.2 5.46c-.03.13-.05.27-.04.4l-.87 5.44-.03.03-.05.06-3.38 5.2c-.2.32-.3.7-.22 1.03.05.24.18.43.36.54.13.1.27.13.44.13.4 0 .8-.25 1.05-.65l3.38-5.2c.1-.15.17-.3.2-.47.06-.12.08-.2.1-.27l.66-4.14.18.05c.07.03.14.04.22.06.24.06.47.14.74.26l.05.04 3.54 4.24 1.1 5.23c.1.56.65.95 1.17.84.53-.1.86-.67.74-1.25l-1.1-5.27c-.04-.17-.12-.33-.23-.48-.04-.08-.1-.14-.14-.2l-3.72-4.45 1.1-5.05 1.08 2.2.08.13.02.05c.05.2.18.38.37.46l3.38 1.5c.34.16.77-.04.93-.4.18-.4.04-.83-.3-1l-3.27-1.43-2.06-4.25c-.06-.15-.12-.28-.2-.4l-.05-.1c-.1-.2-.26-.38-.45-.47-.26-.2-.52-.32-.8-.38-.18-.04-.35-.05-.53-.05h-.04c-.14 0-.28.03-.42.08-.27.07-.52.2-.74.37l-4.8 2.54-.22.15c-.23.13-.37.32-.4.55l-.76 3.96c-.08.4.2.8.6.9.42.07.82-.2.9-.62l.7-3.8 2.94-1.54zM11.94 35.32h6.6v.3h-6.6zM31.2 35.32h5.98v.3h-6zM21.23 35.32h7.65v.3h-7.65z"/></g><path fill="#F8BB21" d="M25 48.72C11.92 48.72 1.28 38.08 1.28 25 1.28 11.92 11.92 1.28 25 1.28c13.08 0 23.72 10.64 23.72 23.72 0 13.08-10.64 23.72-23.72 23.72zM25 1.9C12.26 1.9 1.9 12.25 1.9 25c0 12.74 10.36 23.1 23.1 23.1 12.74 0 23.1-10.36 23.1-23.1C48.1 12.26 37.75 1.9 25 1.9z"/></svg>