<svg xmlns="http://www.w3.org/2000/svg" width="300" height="60" viewBox="0 0 300 60"><path fill="#fff" d="M156.9 29.9c-1.5 0-2.6.5-3.72 1v11.48c1.07.1 1.68.1 2.7.1 3.64 0 4.14-1.67 4.14-4v-5.5c0-1.7-.57-3.1-3.1-3.1m-24.25-.6c-2.53-.02-3.1 1.37-3.1 3.1v.96h6.2v-.97c0-1.72-.57-3.1-3.1-3.1M85.7 41.22c0 1.36.64 2.06 2.06 2.06 1.52 0 2.42-.5 3.53-1v-2.72h-3.34c-1.57 0-2.26.3-2.26 1.66m94.8-11.33c-2.54 0-3.4 1.38-3.4 3.1v6.28c0 1.72.86 3.1 3.4 3.1 2.53 0 3.42-1.38 3.42-3.1v-6.3c0-1.7-.9-3.1-3.42-3.1M73.26 48.27H65.8V30.23H62.1v-6.2h3.73v-3.74c0-5.08 2.1-8.1 8.1-8.1h4.97v6.22h-3.1c-2.34 0-2.5.87-2.5 2.5V24h5.63l-.66 6.2h-4.98v18.04zm25.5.05h-6.22l-.27-1.56c-2.84 1.57-5.37 1.82-7.04 1.82-4.56 0-7-3.04-7-7.24 0-4.96 2.84-6.74 7.9-6.74h5.17V33.5c0-2.52-.3-3.27-4.2-3.27h-6.37l.62-6.2h6.97c8.56 0 10.44 2.7 10.44 9.53V48.3zm21.13-17.6c-3.88-.67-5-.82-6.85-.82-3.34 0-4.35.74-4.35 3.57v5.37c0 2.83 1 3.57 4.35 3.57 1.86 0 2.97-.16 6.84-.82v6.06c-3.4.76-5.6.95-7.47.95-8 0-11.2-4.2-11.2-10.3v-4.34c0-6.08 3.2-10.3 11.2-10.3 1.87 0 4.07.2 7.46.97v6.06zm23.33 7.6h-13.67v.52c0 2.83 1 3.57 4.35 3.57 3.02 0 4.85-.16 8.7-.82v6.06c-3.7.76-5.65.95-9.3.95-8.02 0-11.2-4.2-11.2-10.3v-4.96c0-5.32 2.36-9.67 10.57-9.67 8.2 0 10.57 4.3 10.57 9.67V38.33zm24.25.13c0 5.87-1.68 10.16-11.86 10.16-3.67 0-5.83-.34-9.9-.96V14.07l7.46-1.24v11.74c1.6-.6 3.7-.9 5.6-.9 7.46 0 8.7 3.34 8.7 8.7v6.06zm23.9.13c0 5.06-2.1 9.98-10.85 9.98-8.77 0-10.9-4.92-10.9-9.98v-4.9c0-5.06 2.13-9.97 10.9-9.97 8.76 0 10.85 4.9 10.85 9.97v4.9zm23.88 0c0 5.06-2.1 9.98-10.85 9.98-8.76 0-10.9-4.92-10.9-9.98v-4.9c0-5.06 2.14-9.97 10.9-9.97 8.77 0 10.86 4.9 10.86 9.97v4.9zm24.52 9.7h-8.1l-6.82-11.4v11.4h-7.46v-34.2l7.46-1.23v22l6.83-10.8h8.08l-7.46 11.8 7.46 12.43zm-35.4-18.37c-2.53 0-3.4 1.38-3.4 3.1v6.28c0 1.72.87 3.1 3.4 3.1s3.43-1.38 3.43-3.1v-6.3c0-1.7-.9-3.1-3.42-3.1"/><path fill="#fff" d="M244.04 44c1.25 0 2.25 1.03 2.25 2.3 0 1.3-1 2.32-2.28 2.32-1.25 0-2.27-1-2.27-2.3 0-1.3 1.02-2.3 2.28-2.3zm0 .37c-1.02 0-1.85.87-1.85 1.94 0 1.1.82 1.96 1.84 1.96s1.84-.86 1.84-1.94-.82-1.95-1.84-1.95zm-.44 3.28h-.4v-2.57c.2-.03.4-.06.7-.06.4 0 .66.08.8.2.16.1.24.28.24.53 0 .34-.22.54-.5.62v.02c.23.03.38.24.43.6.06.4.13.57.17.65h-.43c-.05-.08-.12-.32-.17-.65-.06-.33-.22-.45-.55-.45h-.28v1.1zm0-1.42h.3c.33 0 .6-.12.6-.44 0-.24-.15-.46-.6-.46-.14 0-.24 0-.3.02v.87z"/></svg>