<svg xmlns="http://www.w3.org/2000/svg" width="300" height="100" viewBox="0 0 300 100"><linearGradient id="a" gradientUnits="userSpaceOnUse" x1="-9261.893" y1="441.45" x2="-9261.893" y2="493.095" gradientTransform="matrix(1.351 0 0 1.351 12556.293 -594.515)"><stop offset="0" stop-color="#196EEF"/><stop offset=".5" stop-color="#186DEE"/><stop offset="1" stop-color="#1065E7"/></linearGradient><path fill="url(#a)" d="M53.3 48.6h12v16.9c-3.8 1.2-8.5 1.9-13.4 1.9-20 0-31.7-17.1-31.7-33.8 0-16.4 10.6-27.9 25.4-27.9 9.4 0 14.8 3.2 19.7 7.6v5.5l9.2-9.2C68.7 5.8 60.3 2 48.3 2 22 2 10 20.9 10 36.3c0 22 16 35.3 36.2 35.3 9.8 0 18.4-1.5 28.5-4.3V49.9c0-.9.4-1.5 1-2l3.2-3.2H57.3l-4 3.9z"/><linearGradient id="b" gradientUnits="userSpaceOnUse" x1="-9216.268" y1="459.009" x2="-9216.268" y2="492.403" gradientTransform="matrix(1.351 0 0 1.351 12556.293 -594.515)"><stop offset="0" stop-color="#DE5744"/><stop offset=".5" stop-color="#DB4632"/><stop offset="1" stop-color="#D13D29"/></linearGradient><path fill="url(#b)" d="M107.2 25.7c-15.1 0-24.5 11.1-24.5 22.8 0 10.1 7.6 22.2 22.9 22.2 14.7 0 23.8-11.1 23.8-23 0-11.2-8.9-22-22.2-22zm-2.5 3.2c10.7 0 15.4 13.9 15.4 23.8 0 14.8-11.1 15-12.4 15-5.1 0-8.6-3.1-11.3-7.1-2.3-3.7-4.6-10.6-4.6-17.3 0-6.7 2.2-10 5.6-12.4 3-1.7 5.6-2 7.3-2z"/><linearGradient id="c" gradientUnits="userSpaceOnUse" x1="-9144.14" y1="459.009" x2="-9144.14" y2="512.628" gradientTransform="matrix(1.351 0 0 1.351 12556.293 -594.515)"><stop offset="0" stop-color="#1A6FEF"/><stop offset=".25" stop-color="#1E72EF"/><stop offset=".5" stop-color="#166BEC"/><stop offset=".75" stop-color="#1267E9"/><stop offset="1" stop-color="#1063E5" stop-opacity=".87"/></linearGradient><path fill="url(#c)" d="M206.2 25.7c-13.2 0-20.4 8.4-20.4 17.7 0 7.1 5.1 15.1 15.6 15.1h2.7s-.7 1.8-.7 3.5c0 2.5.9 3.9 2.8 6.1-18.1 1.1-25.4 8.4-25.4 16.3 0 6.9 6.6 13.6 20.4 13.6 16.4 0 24.8-9.1 24.8-18 0-6.3-3.1-9.7-11.1-15.7-2.3-1.8-2.8-3-2.8-4.3 0-1.9 1.2-3.2 1.6-3.7.8-.8 2.1-1.7 2.5-2.1 2.7-2.3 6.4-5.6 6.4-12.3 0-4.6-1.9-8.5-6.2-12.2h5.3l4-4h-19.5zm-3.6 2.9c2.4 0 4.4.8 6.5 2.6 2.3 2.1 6.1 7.8 6.1 14.8 0 7.6-5.9 9.7-9.1 9.7-1.6 0-3.4-.4-5-1.5-3.5-2.3-7-8.4-7-15.6 0-6.5 3.9-10 8.5-10zm5.2 42.4c1 0 1.7.1 1.7.1s2.4 1.7 4 3c3.9 3.1 6.3 5.4 6.3 9.6 0 5.7-5.3 10.2-13.9 10.2-9.5 0-16.7-4.4-16.7-11.6.1-6 5-11.1 18.6-11.3z"/><linearGradient id="d" gradientUnits="userSpaceOnUse" x1="-9118.42" y1="442.388" x2="-9118.42" y2="491.465" gradientTransform="matrix(1.351 0 0 1.351 12556.293 -594.515)"><stop offset="0" stop-color="#0AA561"/><stop offset=".5" stop-color="#009B58"/><stop offset="1" stop-color="#00914B"/></linearGradient><path fill="url(#d)" d="M228.7 69.3h18.2l2.8-2.8-5.2-.6c-1.4-.2-2.2-1.4-2.2-2.6V8.5c0-1.1.5-1.6.9-2l3.3-3.3H231l-4 4h6V64c0 .8-.3 1.4-.8 1.9l-3.5 3.4z"/><linearGradient id="e" gradientUnits="userSpaceOnUse" x1="-9094.69" y1="459.009" x2="-9094.69" y2="492.311" gradientTransform="matrix(1.351 0 0 1.351 12556.293 -594.515)"><stop offset="0" stop-color="#DE5644"/><stop offset=".5" stop-color="#DA4531"/><stop offset="1" stop-color="#CE3A28"/></linearGradient><path fill="url(#e)" d="M271.5 25.7c-10.1 0-20.9 7.7-20.9 21.6 0 11.5 7.7 23.4 22.2 23.4 3.6 0 6.6-.5 9.3-1.7 3-1.4 5.8-3.6 7.9-6.4-4 2-7.2 3.3-11.5 3.3-8.1 0-16-5.9-18.7-16.7l28.7-11.6c-1.6-6-6.3-11.9-17-11.9zm-1.9 3.1c5.4 0 9.4 4.5 9.4 8 0 1.1-.7 1.7-2.1 2.3l-17.7 7.1s-.5-2.2-.5-4.6c0-10.1 7.3-12.8 10.9-12.8z"/><linearGradient id="f" gradientUnits="userSpaceOnUse" x1="-9178.229" y1="459.086" x2="-9178.229" y2="492.343" gradientTransform="matrix(1.351 0 0 1.351 12556.293 -594.515)"><stop offset="0" stop-color="#FFC01A"/><stop offset=".5" stop-color="#FFBA03"/><stop offset="1" stop-color="#FFB300"/></linearGradient><path fill="url(#f)" d="M158.6 25.7c-15.1 0-24.5 11.1-24.5 22.8 0 10.1 7.6 22.2 22.9 22.2 14.7 0 23.8-11.1 23.8-23-.1-11.2-8.9-22-22.2-22zm-2.5 3.2c10.7 0 15.4 13.9 15.4 23.8 0 14.8-11.1 15-12.4 15-5.1 0-8.6-3.1-11.3-7.1-2.3-3.7-4.6-10.6-4.6-17.3 0-6.7 2.2-10 5.6-12.4 2.9-1.7 5.6-2 7.3-2z"/></svg>