<svg xmlns="http://www.w3.org/2000/svg" width="300" height="60" viewBox="0 0 300 60"><path fill="#3B5999" d="M156.9 29.9c-1.5 0-2.6.5-3.7 1v11.5c1.1.1 1.7.1 2.7.1 3.7 0 4.2-1.7 4.2-4V33c-.1-1.7-.6-3.1-3.2-3.1m-24.2-.6c-2.5 0-3.1 1.4-3.1 3.1v1h6.2v-1c0-1.7-.6-3.1-3.1-3.1m-47 11.9c0 1.4.6 2.1 2.1 2.1s2.4-.5 3.5-1v-2.7H88c-1.6 0-2.3.2-2.3 1.6m94.8-11.3c-2.5 0-3.4 1.4-3.4 3.1v6.3c0 1.7.9 3.1 3.4 3.1s3.4-1.4 3.4-3.1V33c0-1.7-.9-3.1-3.4-3.1M73.3 48.3h-7.5v-18h-3.7V24h3.7v-3.7c0-5.1 2.1-8.1 8.1-8.1h5v6.2h-3.1c-2.3 0-2.5.9-2.5 2.5V24h5.6l-.7 6.2h-5v18.1zm25.5 0h-6.2l-.3-1.6c-2.8 1.6-5.4 1.8-7 1.8-4.6 0-7-3-7-7.2 0-5 2.8-6.7 7.9-6.7h5.2v-1.1c0-2.5-.3-3.3-4.2-3.3h-6.4l.6-6.2h7c8.6 0 10.4 2.7 10.4 9.5v14.8zm21.1-17.6c-3.9-.7-5-.8-6.8-.8-3.3 0-4.4.7-4.4 3.6v5.4c0 2.8 1 3.6 4.4 3.6 1.9 0 3-.1 6.8-.8v6.1c-3.4.8-5.6 1-7.5 1-8 0-11.2-4.2-11.2-10.3V34c0-6.1 3.2-10.3 11.2-10.3 1.9 0 4.1.2 7.5 1v6zm23.3 7.6h-13.7v.5c0 2.8 1 3.6 4.4 3.6 3 0 4.8-.1 8.7-.8v6.1c-3.7.8-5.7 1-9.3 1-8 0-11.2-4.2-11.2-10.3v-5c0-5.3 2.4-9.7 10.6-9.7s10.6 4.3 10.6 9.7l-.1 4.9zm24.3.1c0 5.9-1.7 10.2-11.9 10.2-3.7 0-5.8-.3-9.9-.9V14.1l7.5-1.2v11.7c1.6-.6 3.7-.9 5.6-.9 7.5 0 8.7 3.3 8.7 8.7v6zm23.9.2c0 5.1-2.1 10-10.9 10s-10.9-4.9-10.9-10v-4.9c0-5.1 2.1-10 10.9-10s10.9 4.9 10.9 10v4.9zm23.9 0c0 5.1-2.1 10-10.9 10s-10.9-4.9-10.9-10v-4.9c0-5.1 2.1-10 10.9-10s10.9 4.9 10.9 10v4.9zm24.5 9.7h-8.1l-6.8-11.4v11.4h-7.5V14.1l7.5-1.2v22l6.8-10.8h8.1l-7.5 11.8 7.5 12.4zm-35.4-18.4c-2.5 0-3.4 1.4-3.4 3.1v6.3c0 1.7.9 3.1 3.4 3.1s3.4-1.4 3.4-3.1V33c0-1.7-.9-3.1-3.4-3.1"/><path fill="#3B5999" d="M244 44c1.3 0 2.3 1 2.3 2.3 0 1.3-1 2.3-2.3 2.3-1.3 0-2.3-1-2.3-2.3 0-1.3 1.1-2.3 2.3-2.3zm0 .4c-1 0-1.8.9-1.8 1.9 0 1.1.8 2 1.9 2 1 0 1.8-.9 1.8-1.9 0-1.2-.8-2-1.9-2zm-.4 3.2h-.4V45c.2 0 .4-.1.7-.1.4 0 .6.1.8.2.2.1.2.3.2.5 0 .3-.2.5-.5.6.2 0 .4.2.4.6.1.4.1.6.2.6h-.4c-.1-.1-.1-.3-.2-.7-.1-.3-.2-.5-.6-.5h-.3l.1 1.4zm0-1.4h.3c.3 0 .6-.1.6-.4 0-.2-.2-.4-.6-.4h-.3v.8z"/></svg>