<svg xmlns="http://www.w3.org/2000/svg" width="300" height="100" viewBox="0 0 300 100"><path fill="#DB2328" d="M43.8 80.56c-.9-7.18-2.75-14.9-4.4-17.12-1.3-1.84-3.32-3.5-7-5.52-1.84-1.1-3.5-2.4-5.16-3.87-2.2-2.2-3.86-4.8-5.15-7.55-1.12-2.76-1.86-5.7-1.86-9.02 0-3.13.56-6.26 1.85-9.02 1.1-2.95 2.93-5.52 5.14-7.55 2.2-2.2 4.8-3.85 7.55-5.14 2.75-1.1 5.7-1.84 9-1.84 3.14 0 6.27.55 9.03 1.84 2.95 1.1 5.53 2.94 7.55 5.15 2.2 2.22 3.87 4.8 5.16 7.56 1.1 2.76 1.84 5.7 1.84 9.02 0 3.13-.56 6.26-1.84 9.02-1.1 2.95-2.95 5.53-5.16 7.55-1.47 1.47-3.13 2.76-5.15 3.87-3.7 2.2-5.7 3.68-7 5.52-1.66 2.2-3.5 9.94-4.42 17.12"/><path fill="#002B55" d="M60.38 29.93c-2.76-6.44-9.2-10.86-16.57-10.86S30 23.5 27.25 29.93c-.55 1.1-.92 2.2-1.1 3.5L43.8 24.6l17.7 8.83c-.2-1.3-.57-2.4-1.12-3.5"/><path fill="#285770" d="M49.9 77.06c2.75.92 4.6 2.4 4.6 4.05 0 2.78-4.8 5-10.7 5-5.88 0-10.67-2.22-10.67-5 0-1.83 2.03-3.3 4.97-4.22C36.09 77.62 35 78.72 35 80c0 2.22 3.86 4.24 8.83 4.24 4.8 0 8.85-1.84 8.85-4.23 0-1.1-1.1-2.2-2.76-2.94"/><path fill="#fff" d="M37.55 41.53h5.53v5.52h-5.53zM44.55 41.53h5.52v5.52h-5.52zM44.55 34.53h5.52v5.53h-5.52zM37.55 34.53h5.53v5.53h-5.53zM63.5 34.35c0-.55-.17-1.3-.36-1.84-.18-1.1-.55-2.02-.92-2.94-.92-2.4-2.58-4.6-4.23-6.44-1.85-1.84-4.06-3.32-6.46-4.24S46.57 17.4 44 17.4c-2.77 0-5.35.56-7.56 1.48-2.4.92-4.6 2.58-6.44 4.24-1.84 1.84-3.3 4.05-4.23 6.44-.56 1.47-1.1 3.13-1.3 4.8-.18.72-.18 1.46-.18 2.2v.55c0 2.6.54 4.98 1.28 7.2 0 .17.2.36.2.54.9 2.4 2.56 4.6 4.22 6.45 1.84 1.83 4.05 3.3 6.45 4.22 2.4.92 4.97 1.47 7.54 1.47 2.76 0 5.33-.56 7.54-1.48 2.4-.92 4.6-2.58 6.45-4.23 1.83-1.85 3.3-4.06 4.22-6.46.92-2.4 1.48-4.97 1.48-7.55v-.56c0-.73 0-1.47-.2-2.4zM27.25 30.1c2.76-6.43 9.2-10.85 16.57-10.85S57.63 23.67 60.4 30.1c.37.75.55 1.5.74 2.22l-7.74-3.86v-4.8h-3.3v3.14l-6.27-3.13-17.3 8.84c.2-.9.37-1.65.74-2.4zm34.6 7.38c0 9.76-8.1 17.86-18.03 17.86-7.72 0-14.35-4.97-16.93-11.8-.73-2-1.1-4.03-1.1-6.24V36c0-.55 0-.9.18-1.28L43.8 25.7l17.87 8.83c.18.56.18 1.1.18 1.66v1.28z"/><path fill="#002B55" d="M285.18 52.7v.16c0 .05-.02.1-.03.1 0 .04-.02.06-.03.07-.02.02-.03.02-.06.02h-.98v3.46c0 .03 0 .05-.02.07l-.07.04-.13.04h-.4c-.04 0-.08 0-.1-.03-.04 0-.06 0-.07-.03-.02-.02-.02-.04-.02-.06v-3.45h-1s-.03 0-.04-.02c-.02 0-.03-.03-.04-.06l-.02-.1v-.34c0-.04 0-.08.02-.1 0-.04.02-.06.04-.07l.05-.02h2.77c.02 0 .03 0 .05.02.02 0 .03.03.04.06 0 .03 0 .07.02.1v.18"/><path fill="#002B55" d="M290.25 56.5c0 .03 0 .05-.02.07 0 .02-.03.03-.07.05l-.1.02h-.38c-.05 0-.1 0-.12-.02l-.06-.05-.02-.06v-3.48l-1.14 3.5c0 .02-.03.04-.04.06l-.08.05-.12.02h-.35c-.05 0-.1-.02-.12-.03-.03 0-.06-.02-.08-.04l-.04-.06-1.1-3.5v3.56l-.07.04-.12.03h-.37c-.04 0-.07-.02-.1-.03-.03 0-.05-.03-.07-.04V52.7c0-.12 0-.2.07-.26.05-.06.13-.1.22-.1h.52c.1 0 .18.02.24.03.08.02.14.05.2.1.04.02.07.08.1.14s.07.15.1.24l.85 2.56.9-2.55c.02-.1.05-.17.08-.24l.1-.14.16-.1h.72c.06-.02.1 0 .15 0l.1.08.05.1c.02.05.02.1.02.15v3.8zM109.38 74.15l-.86-2.67h-3.37l-.85 2.67h-1.4l3.18-9.43h1.7l3.12 9.43h-1.52zm-2.47-8.12h-.08c-.13.53-1.16 3.9-1.33 4.36h2.72c-.17-.45-1.18-3.83-1.3-4.37M121.1 72.88c-.68.82-1.58 1.27-3.27 1.27h-2.42v-9.42h2.26c1.68 0 2.75.37 3.64 1.56.57.77.86 1.85.86 3.15 0 1.53-.4 2.65-1.06 3.43m-1.17-6.26c-.54-.66-1.1-.84-2.04-.84h-1.1v7.3h1.06c1.1 0 1.83-.3 2.27-1.07.35-.6.52-1.46.52-2.4 0-1.3-.14-2.27-.72-2.98"/><path fill="#002B55" d="M124.93 66.1c-.5 0-.9-.4-.9-.9s.4-.92.9-.92.94.4.94.9-.42.92-.94.92m-.66 8.05v-6.8l1.34-.2v7h-1.33zM135.27 65.32c-.24-.1-.58-.22-.87-.22-.6 0-.93.4-.93 1.1v1.1h1.83l-.35.9h-1.47v5.95h-1.3V68.2h-2.73v5.95h-1.3V68.2h-.68v-.9h.7l-.04-1.1c0-.93.42-1.43.8-1.7.32-.24.75-.33 1.27-.33.58 0 1.1.1 1.53.37l-.43.8c-.3-.14-.6-.24-.92-.24-.6 0-.94.4-.94 1.1v1.1h2.73l-.03-1.1c0-.93.4-1.43.8-1.7.35-.24.75-.34 1.28-.34.6 0 1.12.1 1.5.33l-.45.82zM137.37 71v.15c0 .6.1 1.04.3 1.37.36.55.94.8 1.62.8.65 0 1.2-.2 1.72-.65l.5.75c-.7.6-1.53.88-2.44.88-1.96 0-3.16-1.38-3.16-3.62 0-1.2.24-1.96.84-2.66.57-.64 1.26-.94 2.13-.94.78 0 1.4.25 1.9.74.63.6.85 1.38.87 2.95V71h-4.3zm2.5-2.48c-.22-.28-.55-.48-1-.48-1 0-1.5.78-1.5 2.02h2.94c0-.66-.14-1.2-.42-1.54"/><path fill="#002B55" d="M146.77 68.4c-.13-.03-.23-.06-.37-.06-.8 0-1.46.64-1.46 1.4v4.4h-1.3v-5.02c0-.84-.1-1.3-.26-1.7l1.25-.33c.13.25.24.7.24 1.05v.12c.56-.8 1.17-1.2 1.9-1.2.18 0 .34.04.45.08l-.45 1.26zM149.52 71v.15c0 .6.08 1.04.3 1.37.36.55.94.8 1.6.8.68 0 1.24-.2 1.75-.65l.5.75c-.7.6-1.53.88-2.45.88-1.96 0-3.16-1.38-3.16-3.62 0-1.2.24-1.96.85-2.66.57-.64 1.26-.94 2.13-.94.8 0 1.43.25 1.92.74.62.6.85 1.38.86 2.95V71h-4.28zm2.5-2.48c-.22-.28-.56-.48-1-.48-1 0-1.5.78-1.5 2.02h2.94c0-.66-.15-1.2-.44-1.54"/><path fill="#002B55" d="M159.76 74.15v-4.62c0-.61-.06-.83-.23-1.05-.14-.18-.4-.28-.7-.28-.52 0-1.28.4-1.76.88v5.07h-1.28v-5.1c0-.82-.08-1.13-.28-1.63l1.23-.32c.17.32.24.63.24 1.05.4-.33.6-.5.9-.67.4-.24.88-.34 1.3-.34.76 0 1.42.38 1.68.97.1.25.16.55.16.87v5.18h-1.28zM166.24 68.2h-1.4v4.1c0 .86.22 1.12.92 1.12.24 0 .44-.04.66-.13l.16.75c-.4.2-.82.3-1.28.3-.47 0-.98-.15-1.2-.35-.3-.26-.52-.4-.52-1.4v-4.4h-.85v-.9h.85c0-.53 0-1.23.08-1.75l1.34-.3c-.06.5-.13 1.35-.13 2.05h1.72l-.36.9zM171.24 64.73h1.38v9.42h-1.38v-9.42zm4.9 9.42l-3.46-5.03 3.4-4.4h1.7l-3.55 4.4 3.68 5.03h-1.75zM180.05 66.1c-.5 0-.9-.4-.9-.9s.4-.92.9-.92.94.4.94.9-.43.92-.95.92m-.66 8.05v-6.8l1.33-.2v7h-1.34zM187.23 74.15v-4.62c0-.61-.05-.83-.22-1.05-.13-.18-.38-.28-.7-.28-.5 0-1.28.4-1.75.88v5.07h-1.3v-5.1c0-.82-.06-1.13-.25-1.63l1.22-.32c.17.32.24.63.24 1.05.4-.33.62-.5.92-.67.4-.24.87-.34 1.3-.34.75 0 1.42.38 1.67.97.1.25.17.55.17.87v5.18h-1.3zM195.44 74.15c-.07-.2-.1-.3-.13-.64-.5.5-1.06.76-1.8.76-1.8 0-2.87-1.32-2.87-3.48 0-1.47.52-2.6 1.48-3.2.45-.28.88-.4 1.4-.4.67 0 1.23.23 1.7.8l-.02-1.2V64.1l1.3.2v7.55c0 1.1.04 1.87.2 2.3h-1.25zm-.27-5.32c-.37-.42-.83-.64-1.5-.64-.53 0-.95.25-1.22.68-.27.46-.37 1-.37 1.9 0 1.32.17 1.7.55 2.07.24.25.57.35 1.04.35.75 0 1.26-.38 1.5-.8v-3.57zM204.75 74.34c-1.9 0-3.06-1.4-3.06-3.62s1.16-3.6 3.02-3.6c2.08 0 3.1 1.6 3.1 3.66 0 2.18-1.2 3.56-3.07 3.56m-.03-6.26c-1.13 0-1.6.78-1.6 2.5 0 2.1.56 2.8 1.66 2.8.98 0 1.6-.75 1.6-2.54 0-2.12-.65-2.76-1.66-2.76"/><path fill="#002B55" d="M213.02 65.36c-.3-.15-.6-.26-.92-.26-.6 0-.94.4-.94 1.1v1.1h1.87l-.34.9h-1.53v5.95h-1.3V68.2h-.68v-.9h.68c-.03-.14-.03-.98-.03-1.1 0-.92.4-1.44.8-1.7.33-.23.75-.33 1.27-.33.58 0 1.1.1 1.53.37l-.43.82zM221.75 74c-.43.1-1.02.15-1.53.15h-2.96v-9.42h2.06c1.63 0 2.07.04 2.67.36.85.43 1.3 1.1 1.3 1.96 0 .98-.57 1.73-1.76 2.07 1.47.32 2.17 1.2 2.17 2.44 0 1.3-.82 2.14-1.95 2.43m-.86-8.07c-.23-.07-.5-.1-1-.1h-1.32v2.88h1.54c.86 0 1.15-.14 1.44-.5.18-.26.28-.62.28-.93 0-.65-.38-1.17-.95-1.34m.28 3.95c-.26-.05-.54-.08-1.02-.08h-1.56v3.28h1.9c.82 0 1.72-.46 1.72-1.66 0-.77-.44-1.4-1.04-1.54"/><path fill="#002B55" d="M228.95 68.4c-.12-.03-.22-.06-.36-.06-.8 0-1.48.64-1.48 1.4v4.4h-1.3v-5.02c0-.84-.1-1.3-.26-1.7l1.25-.33c.14.25.25.7.25 1.05v.12c.56-.8 1.17-1.2 1.9-1.2.18 0 .34.04.45.08l-.45 1.26zM233.24 74.34c-1.9 0-3.06-1.4-3.06-3.62s1.17-3.6 3.03-3.6c2.1 0 3.1 1.6 3.1 3.66 0 2.18-1.2 3.56-3.06 3.56m-.03-6.26c-1.12 0-1.58.78-1.58 2.5 0 2.1.55 2.8 1.65 2.8.98 0 1.6-.75 1.6-2.54 0-2.12-.65-2.76-1.66-2.76"/><path fill="#002B55" d="M238.35 74.15v-8.18c0-.7-.07-1.16-.18-1.55l1.3-.3c.1.36.18.94.18 1.5v8.53h-1.3zm4.34 0l-2.9-3.9 2.3-2.96h1.6l-2.53 2.9 3.14 3.95h-1.6zM246.4 71v.15c0 .6.08 1.04.3 1.37.36.55.94.8 1.6.8.67 0 1.24-.2 1.74-.65l.5.75c-.7.6-1.52.88-2.44.88-1.96 0-3.16-1.38-3.16-3.62 0-1.2.24-1.96.85-2.66.55-.64 1.24-.94 2.1-.94.8 0 1.44.25 1.93.74.62.6.85 1.38.86 2.95V71h-4.3zm2.5-2.48c-.22-.28-.56-.48-1-.48-1 0-1.5.78-1.5 2.02h2.94c0-.66-.15-1.2-.44-1.54"/><path fill="#002B55" d="M255.8 68.4c-.13-.03-.23-.06-.37-.06-.8 0-1.47.64-1.47 1.4v4.4h-1.3v-5.02c0-.84-.1-1.3-.26-1.7l1.25-.33c.13.25.24.7.24 1.05v.12c.55-.8 1.16-1.2 1.9-1.2.18 0 .33.04.44.08l-.45 1.26zM262.18 74.43c-.44-.16-.78-.5-.95-.98-.18.22-.77.9-2 .9-1.4 0-2.28-.7-2.28-2 0-1.6 1.3-2.44 3.6-2.44.16 0 .3 0 .5.02v-.45c0-.8-.13-1.35-1.1-1.35-.76 0-1.6.36-2.18.78l-.6-.9c.7-.38 1.6-.9 2.96-.9 1.03 0 1.78.36 2.05 1.1.1.3.14.52.14 1.2 0 .48-.06 1.54-.06 2.53 0 .95.03 1.33.58 1.66l-.66.83zm-1.6-3.67c-.97 0-1.56.18-1.84.5-.27.3-.37.54-.37 1 0 .74.4 1.18 1.1 1.18.6 0 1.17-.36 1.5-.9l.04-1.76-.42-.02M269.97 68.27c-.22 0-.27 0-.6-.1.36.44.5.8.5 1.25 0 .98-.7 2.12-2.54 2.12-.43.13-1.1.45-1.1.75 0 .2.16.33.5.33h1.08c1.8 0 2.56.82 2.56 1.9 0 1.46-1.25 2.2-2.97 2.2-1.98 0-3.1-.67-3.1-1.8 0-.3.05-.5.12-.7l1.26-.07c-.05.1-.12.33-.12.52 0 .7.6 1.1 1.7 1.1 1.16 0 1.73-.45 1.73-1.18 0-.66-.55-1.04-1.95-1.04-.5 0-1.06-.04-1.32-.06-.62-.07-1-.42-1-.92 0-.64.6-.9 1.4-1.2-1.1-.32-1.67-1.03-1.67-1.97 0-1.37 1.08-2.3 2.7-2.3.38 0 .68.04 1.1.17.37.1.75.2 1.06.2.42 0 .77-.12 1.15-.38l.66.77c-.4.3-.73.4-1.16.4m-2.84-.18c-.83 0-1.28.43-1.28 1.3 0 .85.47 1.28 1.3 1.28.85 0 1.28-.45 1.28-1.3 0-.88-.4-1.3-1.3-1.3M273.3 71v.15c0 .6.08 1.04.3 1.37.35.55.93.8 1.6.8s1.24-.2 1.74-.65l.5.75c-.7.6-1.53.88-2.44.88-1.96 0-3.16-1.38-3.16-3.62 0-1.2.24-1.96.85-2.66.55-.64 1.24-.94 2.1-.94.8 0 1.44.25 1.93.74.62.6.84 1.38.86 2.95V71h-4.3zm2.5-2.48c-.23-.28-.56-.48-1-.48-1 0-1.5.78-1.5 2.02h2.94c0-.66-.16-1.2-.44-1.54"/><path fill="#002B55" d="M98.97 32.14h-7.42v25.12H85.2V32.14h-7.6V27.1H100zM115.83 57.26V42.33c0-2.2-.62-3.03-2.32-3.03-1.47 0-3.4.86-4.73 2.03v15.93h-6.08v-25.7c-.02-2.07-.2-4.15-.46-5.06l6.13-1.4c.26 1.22.4 3.3.4 5.43v4.43c0 .7-.1 1.6-.1 1.86 1.57-1.43 4.17-2.38 6.5-2.38 2.9 0 5.22 1.2 5.94 3.17.46 1.26.6 2 .6 4.13v15.53h-5.87zM131.9 47.97v.18c0 3.42 1.73 5.38 4.82 5.38 2.06 0 3.98-.74 5.8-2.22l2.34 3.5c-2.64 2.07-5.4 3.06-8.63 3.06-6.58 0-10.83-4.5-10.83-11.5 0-4 .85-6.63 2.87-8.8 1.88-2.04 4.15-3 7.2-3 2.63 0 5.14.87 6.62 2.35 2.1 2.1 3.03 5.08 3.03 9.73v1.34H131.9zm7-4.5c0-1.66-.17-2.53-.7-3.35-.58-.87-1.43-1.3-2.64-1.3-2.28 0-3.58 1.73-3.58 4.8v.1h6.94v-.26z"/><path fill="#DA2328" d="M165 57.26c-1.22-2-1.7-2.82-2.92-4.95-3.1-5.4-4.03-6.9-5.15-7.36-.3-.14-.58-.22-.98-.27v12.6h-6.13V27.1h11.6c5.5 0 9.1 3.56 9.1 8.85 0 4.5-3.07 8.25-6.92 8.33.63.48.9.74 1.3 1.26 1.8 2.17 7.46 11.72 7.46 11.72H165zM161.7 32.4c-.7-.26-2-.44-3.53-.44h-2.25v8.16h2.1c2.7 0 3.85-.26 4.7-1 .76-.7 1.2-1.78 1.2-3.04 0-1.86-.75-3.16-2.23-3.68"/><path fill="#DA2328" d="M179.97 47.97v.18c0 3.42 1.74 5.38 4.83 5.38 2.05 0 3.98-.74 5.8-2.22l2.34 3.5c-2.64 2.07-5.4 3.06-8.63 3.06-6.57 0-10.82-4.5-10.82-11.5 0-4 .85-6.63 2.86-8.8 1.88-2.04 4.17-3 7.2-3 2.64 0 5.15.87 6.62 2.35 2.1 2.1 3.05 5.08 3.05 9.73v1.34h-13.23zm7.02-4.5c0-1.66-.2-2.53-.73-3.35-.58-.87-1.43-1.3-2.63-1.3-2.28 0-3.58 1.73-3.58 4.8v.1H187v-.26zM211.68 57.26c-.18-.35-.27-.7-.36-1.3-1.47 1.25-3.22 1.86-5.27 1.86-5.82 0-9.5-4.38-9.5-11.28 0-6.94 4-11.7 9.8-11.7 1.66-.02 2.96.37 4.08 1.24-.1-.47-.18-2-.18-3.3v-7.63l5.95.9v23.1c0 5.46.44 7.24.85 8.1h-5.37zm-1.34-16.36c-1.12-.96-2.2-1.43-3.27-1.43-2.68 0-3.84 2.17-3.84 7.1 0 4.8 1.03 6.35 4.16 6.35 1.1 0 2.35-.74 2.94-1.43V40.9z"/><path fill="#002B55" d="M238.83 45.15c-1.44.66-2.78 1-6.22 1h-3.43v11.1h-6.27V27.1h8.2c5.27 0 6.88.52 8.62 1.48 2.9 1.56 4.47 4.34 4.47 7.8 0 4-1.97 7.2-5.37 8.77M233.15 32h-3.98v9.2h3.26c2.55 0 3.3-.3 4.16-1.56.53-.82.75-1.7.75-3.12 0-2.82-1.56-4.5-4.2-4.5"/><path fill="#002B55" d="M250.54 32.53c-2 0-3.66-1.6-3.66-3.6s1.7-3.6 3.75-3.6c2.02 0 3.63 1.6 3.63 3.6s-1.66 3.6-3.72 3.6m-3 24.73V35.44l6-.92v22.74h-6zM271.97 57.26V42.8c0-2.5-.45-3.24-2.02-3.24-1.2 0-2.77.78-4.15 2v15.7h-6v-16.1c0-1.9-.27-3.73-.8-5.2l5.32-1.48c.54.9.85 1.86.85 2.78.9-.6 1.65-1.13 2.64-1.65 1.2-.6 2.78-.95 4.12-.95 2.55 0 4.8 1.3 5.5 3.2.32.83.45 1.8.45 3.18v16.23h-5.9z"/></svg>