<?xml version="1.0" encoding="utf-8"?>
<!-- Generator: Adobe Illustrator 17.1.0, SVG Export Plug-In . SVG Version: 6.00 Build 0)  -->
<!DOCTYPE svg PUBLIC "-//W3C//DTD SVG 1.1//EN" "http://www.w3.org/Graphics/SVG/1.1/DTD/svg11.dtd">
<svg version="1.1" id="Layer_1" xmlns="http://www.w3.org/2000/svg" xmlns:xlink="http://www.w3.org/1999/xlink" x="0px" y="0px"
	 width="300px" height="100px" viewBox="0 0 300 100" enable-background="new 0 0 300 100" xml:space="preserve">
<g>
	<path fill="#DB2328" d="M43.811,80.562c-0.921-7.18-2.762-14.913-4.419-17.122c-1.289-1.841-3.314-3.498-6.996-5.523
		c-1.841-1.105-3.498-2.393-5.155-3.866c-2.209-2.209-3.866-4.787-5.155-7.549c-1.105-2.762-1.841-5.707-1.841-9.021
		c0-3.13,0.552-6.26,1.841-9.021c1.105-2.946,2.946-5.523,5.155-7.549c2.209-2.209,4.787-3.866,7.549-5.155
		c2.762-1.105,5.707-1.841,9.021-1.841c3.13,0,6.26,0.552,9.021,1.841c2.946,1.105,5.523,2.946,7.549,5.155
		c2.209,2.209,3.866,4.787,5.155,7.549c1.105,2.762,1.841,5.707,1.841,9.021c0,3.13-0.552,6.26-1.841,9.021
		c-1.105,2.946-2.946,5.523-5.155,7.549c-1.473,1.473-3.13,2.762-5.155,3.866c-3.682,2.209-5.707,3.682-6.996,5.523
		C46.573,65.648,44.732,73.381,43.811,80.562L43.811,80.562L43.811,80.562"/>
	<path fill="#002B55" d="M60.381,29.931c-2.762-6.444-9.206-10.863-16.57-10.863s-13.808,4.419-16.57,10.863
		c-0.552,1.105-0.921,2.209-1.105,3.498l17.675-8.837l17.675,8.837C61.302,32.14,60.934,31.035,60.381,29.931"/>
	<path fill="#285770" d="M49.887,77.063c2.762,0.921,4.603,2.393,4.603,4.051c0,2.762-4.787,4.971-10.678,4.971
		c-5.892,0-10.678-2.209-10.678-4.971c0-1.841,2.025-3.314,4.971-4.235c-2.025,0.736-3.13,1.841-3.13,3.13
		c0,2.209,3.866,4.235,8.837,4.235c4.787,0,8.837-1.841,8.837-4.235C52.649,78.905,51.544,77.8,49.887,77.063"/>
	<rect x="37.552" y="41.53" fill="#FFFFFF" width="5.523" height="5.523"/>
	<rect x="44.548" y="41.53" fill="#FFFFFF" width="5.523" height="5.523"/>
	<rect x="44.548" y="34.534" fill="#FFFFFF" width="5.523" height="5.523"/>
	<rect x="37.552" y="34.534" fill="#FFFFFF" width="5.523" height="5.523"/>
	<path fill="#FFFFFF" d="M63.511,34.349c0-0.552-0.184-1.289-0.368-1.841c-0.184-1.105-0.552-2.025-0.921-2.946
		c-0.921-2.393-2.578-4.603-4.235-6.444c-1.841-1.841-4.05-3.314-6.444-4.235s-4.971-1.473-7.549-1.473
		c-2.762,0-5.339,0.552-7.549,1.473c-2.393,0.921-4.603,2.578-6.444,4.235c-1.841,1.841-3.314,4.05-4.235,6.444
		c-0.552,1.473-1.105,3.13-1.289,4.787c-0.184,0.736-0.184,1.473-0.184,2.209c0,0.184,0,0.368,0,0.552
		c0,2.578,0.552,4.971,1.289,7.18c0,0.184,0.184,0.368,0.184,0.552c0.921,2.393,2.578,4.603,4.235,6.444
		c1.841,1.841,4.05,3.314,6.444,4.235c2.393,0.921,4.971,1.473,7.549,1.473c2.762,0,5.339-0.552,7.549-1.473
		c2.393-0.921,4.603-2.578,6.444-4.235c1.841-1.841,3.314-4.05,4.235-6.444c0.921-2.393,1.473-4.971,1.473-7.549
		c0-0.184,0-0.368,0-0.552C63.695,36.006,63.695,35.27,63.511,34.349z M27.241,30.115c2.762-6.444,9.206-10.863,16.57-10.863
		s13.808,4.419,16.57,10.863c0.368,0.736,0.552,1.473,0.736,2.209l-7.733-3.866v-4.787H50.07v3.13l-6.26-3.13l-17.306,8.837
		C26.689,31.588,26.873,30.851,27.241,30.115z M61.854,37.479c0,9.758-8.101,17.859-18.043,17.859
		c-7.733,0-14.361-4.971-16.938-11.783c-0.736-2.025-1.105-4.05-1.105-6.26c0-0.368,0-0.921,0-1.289c0-0.552,0-0.921,0.184-1.289
		l17.859-9.021l17.859,8.837c0.184,0.552,0.184,1.105,0.184,1.657C61.854,36.559,61.854,37.111,61.854,37.479z"/>
	<path fill="#002B55" d="M285.184,52.7c0,0.063-0.002,0.118-0.007,0.164c-0.006,0.044-0.013,0.081-0.024,0.109
		c-0.009,0.028-0.024,0.048-0.037,0.061c-0.017,0.013-0.031,0.02-0.052,0.02h-0.987v3.458c0,0.022-0.005,0.042-0.02,0.059
		c-0.013,0.018-0.035,0.033-0.064,0.042c-0.031,0.011-0.072,0.02-0.123,0.028c-0.052,0.006-0.116,0.009-0.193,0.009
		s-0.142-0.004-0.193-0.009c-0.052-0.007-0.092-0.015-0.123-0.028c-0.029-0.011-0.052-0.024-0.064-0.042
		c-0.013-0.018-0.02-0.039-0.02-0.059v-3.458h-0.987c-0.02,0-0.037-0.005-0.052-0.02c-0.017-0.013-0.026-0.035-0.037-0.061
		c-0.011-0.028-0.018-0.064-0.022-0.109c-0.006-0.046-0.007-0.101-0.007-0.164c0-0.066,0.002-0.123,0.007-0.169
		c0.005-0.046,0.013-0.083,0.022-0.11c0.011-0.028,0.022-0.048,0.037-0.059c0.013-0.011,0.031-0.018,0.052-0.018h2.778
		c0.018,0,0.035,0.007,0.052,0.018c0.015,0.011,0.028,0.031,0.037,0.059c0.011,0.028,0.017,0.064,0.024,0.11
		C285.182,52.576,285.184,52.634,285.184,52.7"/>
	<path fill="#002B55" d="M290.245,56.513c0,0.022-0.005,0.042-0.017,0.061c-0.011,0.017-0.031,0.031-0.063,0.042
		c-0.029,0.011-0.068,0.02-0.118,0.026c-0.048,0.005-0.11,0.009-0.186,0.009c-0.074,0-0.134-0.004-0.182-0.009
		c-0.05-0.007-0.087-0.015-0.116-0.026s-0.05-0.026-0.061-0.042c-0.013-0.018-0.018-0.039-0.018-0.061v-3.491h-0.005l-1.143,3.489
		c-0.007,0.029-0.022,0.053-0.039,0.072c-0.02,0.018-0.044,0.033-0.075,0.046c-0.031,0.009-0.072,0.017-0.12,0.02
		c-0.05,0.004-0.109,0.006-0.179,0.006c-0.068,0-0.127-0.002-0.177-0.007c-0.048-0.006-0.088-0.015-0.12-0.026
		c-0.031-0.011-0.057-0.026-0.075-0.044s-0.029-0.039-0.037-0.063l-1.103-3.489h-0.005v3.491c0,0.022-0.006,0.042-0.017,0.061
		c-0.011,0.017-0.031,0.031-0.063,0.042c-0.031,0.011-0.07,0.02-0.116,0.026c-0.048,0.005-0.11,0.009-0.184,0.009
		s-0.134-0.004-0.184-0.009c-0.048-0.007-0.087-0.015-0.118-0.026c-0.029-0.011-0.048-0.026-0.061-0.042
		c-0.011-0.018-0.017-0.039-0.017-0.061v-3.822c0-0.112,0.028-0.199,0.083-0.258c0.055-0.061,0.129-0.09,0.219-0.09h0.523
		c0.092,0,0.175,0.009,0.241,0.026c0.068,0.017,0.125,0.044,0.173,0.083c0.05,0.039,0.088,0.09,0.122,0.153s0.063,0.14,0.087,0.234
		l0.852,2.555h0.011l0.884-2.55c0.026-0.094,0.057-0.171,0.088-0.236c0.031-0.064,0.068-0.116,0.109-0.156
		c0.042-0.04,0.09-0.068,0.147-0.085s0.123-0.026,0.199-0.026h0.539c0.053,0,0.101,0.007,0.142,0.024
		c0.039,0.015,0.072,0.039,0.098,0.068s0.044,0.066,0.059,0.109c0.013,0.044,0.02,0.092,0.02,0.147v3.82L290.245,56.513
		L290.245,56.513z"/>
	<path fill="#002B55" d="M109.377,74.149l-0.86-2.666h-3.367l-0.845,2.666h-1.408l3.183-9.432h1.69l3.126,9.432H109.377z
		 M106.91,66.028h-0.085c-0.14,0.532-1.169,3.909-1.338,4.36h2.732C108.052,69.951,107.037,66.575,106.91,66.028"/>
	<path fill="#002B55" d="M121.098,72.877c-0.676,0.819-1.578,1.272-3.268,1.272h-2.423V64.73h2.254c1.675,0,2.747,0.37,3.634,1.559
		c0.578,0.779,0.86,1.858,0.86,3.158C122.155,70.977,121.746,72.098,121.098,72.877 M119.929,66.617
		c-0.534-0.655-1.099-0.834-2.042-0.834h-1.099v7.285h1.072c1.112,0,1.83-0.287,2.268-1.053c0.352-0.628,0.521-1.477,0.521-2.406
		C120.647,68.298,120.507,67.328,119.929,66.617"/>
	<path fill="#002B55" d="M124.931,66.096c-0.506,0-0.902-0.411-0.902-0.902c0-0.506,0.409-0.915,0.915-0.915s0.93,0.396,0.93,0.915
		C125.875,65.687,125.452,66.096,124.931,66.096 M124.27,74.149v-6.808l1.337-0.204v7.013L124.27,74.149L124.27,74.149z"/>
	<path fill="#002B55" d="M135.271,65.317c-0.239-0.109-0.578-0.219-0.873-0.219c-0.591,0-0.93,0.396-0.93,1.094v1.107h1.832
		l-0.352,0.889h-1.465v5.96h-1.311v-5.96h-2.719v5.96h-1.311v-5.96h-0.676v-0.889h0.69c0-0.136-0.029-0.983-0.029-1.094
		c0-0.93,0.423-1.436,0.803-1.709c0.324-0.232,0.747-0.33,1.269-0.33c0.578,0,1.099,0.11,1.536,0.37l-0.436,0.819
		c-0.309-0.151-0.593-0.26-0.915-0.26c-0.591,0-0.944,0.396-0.944,1.094v1.107h2.732c0-0.136-0.028-0.983-0.028-1.094
		c0-0.93,0.409-1.436,0.803-1.709c0.339-0.232,0.747-0.33,1.269-0.33c0.591,0,1.127,0.11,1.493,0.33L135.271,65.317z"/>
	<path fill="#002B55" d="M137.373,70.991v0.164c0,0.587,0.085,1.038,0.295,1.366c0.366,0.547,0.944,0.806,1.62,0.806
		c0.663,0,1.226-0.219,1.733-0.655l0.493,0.751c-0.69,0.587-1.521,0.875-2.438,0.875c-1.957,0-3.156-1.381-3.156-3.623
		c0-1.189,0.239-1.955,0.845-2.653c0.563-0.643,1.254-0.943,2.126-0.943c0.79,0,1.423,0.247,1.917,0.738
		c0.62,0.615,0.845,1.381,0.86,2.953v0.219h-4.295V70.991z M139.879,68.517c-0.226-0.273-0.563-0.479-1.014-0.479
		c-0.987,0-1.48,0.779-1.48,2.023h2.929C140.315,69.404,140.161,68.858,139.879,68.517"/>
	<path fill="#002B55" d="M146.77,68.406c-0.127-0.04-0.225-0.068-0.366-0.068c-0.79,0-1.466,0.643-1.466,1.394v4.415h-1.296v-5.03
		c0-0.834-0.099-1.285-0.267-1.709l1.254-0.315c0.127,0.26,0.239,0.711,0.239,1.053v0.123c0.563-0.794,1.169-1.189,1.915-1.189
		c0.169,0,0.324,0.028,0.438,0.068L146.77,68.406z"/>
	<path fill="#002B55" d="M149.517,70.991v0.164c0,0.587,0.085,1.038,0.295,1.366c0.366,0.547,0.945,0.806,1.62,0.806
		c0.663,0,1.226-0.219,1.733-0.655l0.493,0.751c-0.69,0.587-1.521,0.875-2.438,0.875c-1.957,0-3.156-1.381-3.156-3.623
		c0-1.189,0.239-1.955,0.845-2.653c0.563-0.643,1.254-0.943,2.126-0.943c0.79,0,1.423,0.247,1.917,0.738
		c0.62,0.615,0.845,1.381,0.86,2.953v0.219h-4.295V70.991z M152.025,68.517c-0.226-0.273-0.563-0.479-1.014-0.479
		c-0.987,0-1.48,0.779-1.48,2.023h2.929C152.461,69.404,152.307,68.858,152.025,68.517"/>
	<path fill="#002B55" d="M159.759,74.149V69.53c0-0.615-0.057-0.834-0.225-1.053c-0.14-0.179-0.394-0.272-0.718-0.272
		c-0.506,0-1.269,0.383-1.745,0.875v5.07h-1.283v-5.098c0-0.819-0.07-1.134-0.267-1.628l1.226-0.328
		c0.169,0.328,0.239,0.63,0.239,1.053c0.409-0.328,0.62-0.506,0.915-0.67c0.409-0.234,0.875-0.342,1.311-0.342
		c0.746,0,1.408,0.383,1.663,0.97c0.112,0.247,0.168,0.547,0.168,0.862v5.181L159.759,74.149L159.759,74.149z"/>
	<path fill="#002B55" d="M166.242,68.187h-1.396v4.128c0,0.847,0.212,1.107,0.915,1.107c0.239,0,0.436-0.04,0.663-0.136l0.155,0.766
		c-0.394,0.191-0.817,0.287-1.283,0.287c-0.464,0-0.972-0.136-1.197-0.342c-0.296-0.26-0.521-0.396-0.521-1.394v-4.415h-0.845
		v-0.889h0.845c0-0.534,0.015-1.23,0.085-1.751l1.338-0.3c-0.057,0.493-0.127,1.353-0.127,2.051h1.72L166.242,68.187z"/>
	<path fill="#002B55" d="M171.244,64.73h1.381v9.417h-1.381V64.73z M176.145,74.149l-3.465-5.03l3.395-4.387h1.705l-3.55,4.375
		l3.677,5.045h-1.762V74.149z"/>
	<path fill="#002B55" d="M180.048,66.096c-0.506,0-0.902-0.411-0.902-0.902c0-0.506,0.409-0.915,0.915-0.915s0.93,0.396,0.93,0.915
		C180.993,65.687,180.57,66.096,180.048,66.096 M179.388,74.149v-6.808l1.338-0.204v7.013L179.388,74.149L179.388,74.149z"/>
	<path fill="#002B55" d="M187.234,74.149V69.53c0-0.615-0.057-0.834-0.225-1.053c-0.14-0.179-0.394-0.272-0.718-0.272
		c-0.506,0-1.269,0.383-1.745,0.875v5.07h-1.283v-5.098c0-0.819-0.07-1.134-0.267-1.628l1.226-0.328
		c0.169,0.328,0.239,0.63,0.239,1.053c0.409-0.328,0.62-0.506,0.915-0.67c0.409-0.234,0.873-0.342,1.311-0.342
		c0.746,0,1.409,0.383,1.663,0.97c0.112,0.247,0.168,0.547,0.168,0.862v5.181L187.234,74.149L187.234,74.149z"/>
	<path fill="#002B55" d="M195.435,74.149c-0.07-0.204-0.085-0.3-0.127-0.643c-0.493,0.506-1.072,0.751-1.817,0.751
		c-1.802,0-2.859-1.313-2.859-3.472c0-1.477,0.521-2.611,1.478-3.211c0.436-0.272,0.875-0.398,1.381-0.398
		c0.676,0,1.239,0.232,1.718,0.794c0-0.191-0.028-0.738-0.028-1.204V64.1l1.296,0.204v7.545c0,1.107,0.042,1.872,0.197,2.296h-1.239
		L195.435,74.149L195.435,74.149z M195.168,68.83c-0.366-0.423-0.83-0.643-1.493-0.643c-0.536,0-0.957,0.26-1.226,0.698
		c-0.267,0.451-0.366,0.998-0.366,1.887c0,1.326,0.169,1.696,0.549,2.077c0.239,0.247,0.563,0.355,1.042,0.355
		c0.747,0,1.254-0.383,1.493-0.794v-3.581h0.001V68.83z"/>
	<path fill="#002B55" d="M204.747,74.34c-1.887,0-3.056-1.396-3.056-3.623c0-2.215,1.169-3.609,3.029-3.609
		c2.084,0,3.099,1.613,3.099,3.677C207.818,72.96,206.621,74.34,204.747,74.34 M204.72,68.079c-1.127,0-1.593,0.779-1.593,2.502
		c0,2.091,0.551,2.787,1.65,2.787c0.985,0,1.593-0.738,1.593-2.528C206.367,68.721,205.734,68.079,204.72,68.079"/>
	<path fill="#002B55" d="M213.017,65.359c-0.309-0.151-0.591-0.26-0.917-0.26c-0.591,0-0.943,0.396-0.943,1.094v1.108h1.872
		l-0.337,0.889h-1.521v5.96h-1.309v-5.96h-0.676v-0.889h0.69c-0.029-0.138-0.029-0.985-0.029-1.094c0-0.93,0.409-1.449,0.79-1.709
		c0.339-0.232,0.76-0.328,1.281-0.328c0.578,0,1.099,0.11,1.536,0.37L213.017,65.359z"/>
	<path fill="#002B55" d="M221.754,73.998c-0.436,0.109-1.027,0.151-1.536,0.151h-2.959v-9.417h2.057c1.633,0,2.071,0.04,2.677,0.355
		c0.86,0.438,1.311,1.108,1.311,1.968c0,0.983-0.578,1.736-1.762,2.077c1.466,0.315,2.169,1.204,2.169,2.434
		C223.711,72.877,222.88,73.711,221.754,73.998 M220.894,65.932c-0.225-0.068-0.493-0.096-0.985-0.096h-1.324v2.87h1.536
		c0.86,0,1.154-0.151,1.436-0.519c0.184-0.247,0.282-0.602,0.282-0.915C221.838,66.617,221.457,66.096,220.894,65.932
		 M221.175,69.883c-0.252-0.055-0.536-0.081-1.014-0.081h-1.565v3.281h1.917c0.803,0,1.705-0.464,1.705-1.668
		C222.218,70.649,221.781,70.019,221.175,69.883"/>
	<path fill="#002B55" d="M228.952,68.406c-0.127-0.04-0.225-0.068-0.366-0.068c-0.79,0-1.466,0.643-1.466,1.394v4.415h-1.296v-5.03
		c0-0.834-0.099-1.285-0.267-1.709l1.254-0.315c0.127,0.26,0.239,0.711,0.239,1.053v0.123c0.563-0.794,1.169-1.189,1.915-1.189
		c0.169,0,0.324,0.028,0.436,0.068L228.952,68.406z"/>
	<path fill="#002B55" d="M233.237,74.34c-1.887,0-3.056-1.396-3.056-3.623c0-2.215,1.169-3.609,3.029-3.609
		c2.084,0,3.099,1.613,3.099,3.677C236.308,72.96,235.111,74.34,233.237,74.34 M233.209,68.079c-1.127,0-1.593,0.779-1.593,2.502
		c0,2.091,0.551,2.787,1.65,2.787c0.985,0,1.593-0.738,1.593-2.528C234.857,68.721,234.222,68.079,233.209,68.079"/>
	<path fill="#002B55" d="M238.351,74.149v-8.175c0-0.696-0.07-1.162-0.184-1.558l1.309-0.3c0.085,0.368,0.169,0.943,0.169,1.504
		v8.53h-1.294V74.149z M242.691,74.149l-2.902-3.896l2.323-2.966h1.578l-2.522,2.911l3.141,3.951H242.691z"/>
	<path fill="#002B55" d="M246.397,70.991v0.164c0,0.587,0.085,1.038,0.295,1.366c0.366,0.547,0.944,0.806,1.62,0.806
		c0.663,0,1.226-0.219,1.733-0.655l0.493,0.751c-0.69,0.587-1.521,0.875-2.438,0.875c-1.957,0-3.156-1.381-3.156-3.623
		c0-1.189,0.239-1.955,0.845-2.653c0.563-0.643,1.254-0.943,2.126-0.943c0.79,0,1.423,0.247,1.917,0.738
		c0.62,0.615,0.845,1.381,0.86,2.953v0.219h-4.295V70.991z M248.905,68.517c-0.226-0.273-0.563-0.479-1.014-0.479
		c-0.985,0-1.478,0.779-1.478,2.023h2.929C249.341,69.404,249.186,68.858,248.905,68.517"/>
	<path fill="#002B55" d="M255.794,68.406c-0.127-0.04-0.225-0.068-0.366-0.068c-0.79,0-1.466,0.643-1.466,1.394v4.415h-1.296v-5.03
		c0-0.834-0.099-1.285-0.267-1.709l1.254-0.315c0.127,0.26,0.239,0.711,0.239,1.053v0.123c0.563-0.794,1.169-1.189,1.915-1.189
		c0.169,0,0.324,0.028,0.436,0.068L255.794,68.406z"/>
	<path fill="#002B55" d="M262.175,74.434c-0.436-0.164-0.775-0.506-0.943-0.983c-0.184,0.219-0.775,0.902-2.001,0.902
		c-1.408,0-2.281-0.698-2.281-2.009c0-1.585,1.309-2.434,3.592-2.434c0.169,0,0.309,0,0.493,0.015v-0.451
		c0-0.806-0.112-1.353-1.099-1.353c-0.746,0-1.591,0.355-2.169,0.779l-0.591-0.902c0.69-0.383,1.591-0.902,2.957-0.902
		c1.029,0,1.775,0.368,2.042,1.094c0.112,0.3,0.14,0.534,0.14,1.202c0,0.492-0.057,1.545-0.057,2.543
		c0,0.943,0.028,1.326,0.578,1.653L262.175,74.434z M260.583,70.758c-0.972,0-1.563,0.179-1.845,0.492
		c-0.267,0.3-0.366,0.547-0.366,0.998c0,0.753,0.396,1.189,1.112,1.189c0.593,0,1.156-0.355,1.48-0.902l0.042-1.751
		C260.809,70.772,260.697,70.758,260.583,70.758"/>
	<path fill="#002B55" d="M269.967,68.27c-0.212,0-0.267-0.013-0.606-0.109c0.366,0.451,0.506,0.819,0.506,1.258
		c0,0.985-0.69,2.119-2.535,2.119c-0.436,0.136-1.112,0.451-1.112,0.751c0,0.204,0.169,0.342,0.506,0.342h1.084
		c1.802,0,2.55,0.819,2.55,1.887c0,1.477-1.254,2.215-2.972,2.215c-1.972,0-3.099-0.67-3.099-1.804c0-0.287,0.057-0.493,0.127-0.698
		l1.268-0.068c-0.057,0.109-0.127,0.328-0.127,0.519c0,0.711,0.606,1.094,1.705,1.094c1.154,0,1.733-0.451,1.733-1.175
		c0-0.657-0.549-1.038-1.944-1.038c-0.493,0-1.057-0.04-1.324-0.068c-0.619-0.068-0.985-0.411-0.985-0.915
		c0-0.643,0.576-0.915,1.379-1.202c-1.084-0.315-1.663-1.026-1.663-1.968c0-1.381,1.084-2.296,2.705-2.296
		c0.381,0,0.676,0.028,1.099,0.151c0.366,0.109,0.746,0.219,1.057,0.219c0.423,0,0.775-0.136,1.154-0.396l0.661,0.779
		C270.742,68.162,270.403,68.27,269.967,68.27 M267.135,68.092c-0.83,0-1.281,0.438-1.281,1.313c0,0.849,0.466,1.272,1.296,1.272
		c0.847,0,1.283-0.451,1.283-1.3C268.431,68.502,268.023,68.092,267.135,68.092"/>
	<path fill="#002B55" d="M273.294,70.991v0.164c0,0.587,0.085,1.038,0.295,1.366c0.366,0.547,0.944,0.806,1.62,0.806
		c0.663,0,1.226-0.219,1.733-0.655l0.493,0.751c-0.69,0.587-1.521,0.875-2.438,0.875c-1.957,0-3.156-1.381-3.156-3.623
		c0-1.189,0.239-1.955,0.845-2.653c0.563-0.643,1.254-0.943,2.126-0.943c0.79,0,1.423,0.247,1.917,0.738
		c0.62,0.615,0.845,1.381,0.86,2.953v0.219h-4.295V70.991z M275.801,68.517c-0.226-0.273-0.563-0.479-1.014-0.479
		c-0.985,0-1.478,0.779-1.478,2.023h2.929C276.238,69.404,276.083,68.858,275.801,68.517"/>
	<polygon fill="#002B55" points="98.973,32.136 91.55,32.136 91.55,57.258 85.2,57.258 85.2,32.136 77.596,32.136 77.596,27.103 
		100.002,27.103 	"/>
	<path fill="#002B55" d="M115.834,57.258V42.334c0-2.213-0.626-3.038-2.325-3.038c-1.477,0-3.399,0.867-4.741,2.038v15.924h-6.083
		V31.573c0-2.082-0.179-4.165-0.447-5.076l6.127-1.388c0.269,1.215,0.403,3.297,0.403,5.424v4.426c0,0.694-0.09,1.605-0.09,1.865
		c1.565-1.431,4.159-2.386,6.484-2.386c2.907,0,5.232,1.215,5.949,3.167c0.447,1.259,0.582,1.996,0.582,4.122v15.534h-5.858
		L115.834,57.258L115.834,57.258z"/>
	<path fill="#002B55" d="M131.89,47.974v0.173c0,3.428,1.744,5.38,4.829,5.38c2.057,0,3.98-0.738,5.814-2.213l2.325,3.471
		c-2.638,2.082-5.411,3.08-8.631,3.08c-6.575,0-10.824-4.513-10.824-11.498c0-3.992,0.851-6.639,2.863-8.808
		c1.88-2.038,4.159-2.994,7.201-2.994c2.638,0,5.144,0.867,6.619,2.342c2.103,2.082,3.042,5.076,3.042,9.719v1.346H131.89V47.974z
		 M138.912,43.461c0-1.648-0.179-2.517-0.714-3.342c-0.582-0.867-1.431-1.302-2.638-1.302c-2.281,0-3.577,1.734-3.577,4.816v0.087
		h6.932v-0.26L138.912,43.461L138.912,43.461z"/>
	<path fill="#DA2328" d="M164.986,57.258c-1.208-1.996-1.699-2.821-2.907-4.947c-3.086-5.424-4.025-6.899-5.144-7.376
		c-0.313-0.131-0.582-0.217-0.983-0.261v12.582h-6.127V27.102h11.582c5.501,0,9.125,3.557,9.125,8.852
		c0,4.511-3.086,8.243-6.932,8.331c0.626,0.477,0.895,0.738,1.296,1.258c1.79,2.169,7.469,11.715,7.469,11.715H164.986
		L164.986,57.258z M161.722,32.396c-0.714-0.261-2.012-0.434-3.533-0.434h-2.237v8.156h2.103c2.682,0,3.846-0.26,4.697-0.998
		c0.76-0.694,1.208-1.779,1.208-3.036C163.957,34.219,163.197,32.917,161.722,32.396"/>
	<path fill="#DA2328" d="M179.969,47.974v0.173c0,3.428,1.744,5.38,4.829,5.38c2.057,0,3.98-0.738,5.814-2.213l2.325,3.471
		c-2.638,2.082-5.411,3.08-8.631,3.08c-6.575,0-10.824-4.513-10.824-11.498c0-3.992,0.851-6.639,2.863-8.808
		c1.88-2.038,4.161-2.994,7.201-2.994c2.638,0,5.144,0.867,6.619,2.342c2.103,2.082,3.042,5.076,3.042,9.719v1.346h-13.238
		L179.969,47.974L179.969,47.974z M186.99,43.461c0-1.648-0.179-2.517-0.716-3.342c-0.582-0.867-1.431-1.302-2.638-1.302
		c-2.281,0-3.577,1.734-3.577,4.816v0.087h6.932v-0.259H186.99z"/>
	<path fill="#DA2328" d="M211.679,57.258c-0.179-0.346-0.269-0.694-0.357-1.302c-1.477,1.258-3.22,1.865-5.277,1.865
		c-5.814,0-9.482-4.382-9.482-11.281c0-6.943,3.98-11.715,9.795-11.715c1.655,0,2.951,0.39,4.069,1.258
		c-0.088-0.477-0.18-1.996-0.18-3.297v-7.637l5.949,0.911v23.082c0,5.466,0.447,7.245,0.851,8.112h-5.367v0.004H211.679z
		 M210.337,40.9c-1.118-0.956-2.191-1.432-3.264-1.432c-2.683,0-3.846,2.169-3.846,7.116c0,4.772,1.029,6.335,4.159,6.335
		c1.118,0,2.369-0.738,2.951-1.432L210.337,40.9L210.337,40.9z"/>
	<path fill="#002B55" d="M238.826,45.153c-1.431,0.652-2.773,0.998-6.217,0.998h-3.443v11.107h-6.262V27.104h8.184
		c5.278,0,6.888,0.521,8.633,1.475c2.907,1.563,4.472,4.34,4.472,7.81C244.191,40.379,242.225,43.59,238.826,45.153 M233.146,32.006
		h-3.98v9.198h3.264c2.55,0,3.31-0.304,4.159-1.561c0.536-0.825,0.76-1.692,0.76-3.124C237.35,33.698,235.785,32.006,233.146,32.006
		"/>
	<path fill="#002B55" d="M250.543,32.527c-2.012,0-3.668-1.605-3.668-3.601s1.699-3.601,3.758-3.601
		c2.012,0,3.623,1.605,3.623,3.601C254.255,30.921,252.6,32.527,250.543,32.527 M247.546,57.258V35.435l5.993-0.911V57.26h-5.993
		V57.258z"/>
	<path fill="#002B55" d="M271.966,57.258V42.809c0-2.517-0.447-3.253-2.012-3.253c-1.208,0-2.773,0.781-4.159,1.996v15.707h-5.993
		V41.162c0-1.909-0.269-3.732-0.805-5.207l5.323-1.475c0.536,0.911,0.849,1.865,0.849,2.776c0.895-0.608,1.655-1.129,2.638-1.65
		c1.208-0.608,2.773-0.956,4.115-0.956c2.55,0,4.785,1.302,5.501,3.211c0.313,0.823,0.447,1.779,0.447,3.167v16.228h-5.904V57.258z"
		/>
</g>
</svg>
