<?xml version="1.0" encoding="utf-8"?>
<!-- Generator: Adobe Illustrator 18.0.0, SVG Export Plug-In . SVG Version: 6.00 Build 0)  -->
<!DOCTYPE svg PUBLIC "-//W3C//DTD SVG 1.1//EN" "http://www.w3.org/Graphics/SVG/1.1/DTD/svg11.dtd">
<svg version="1.1" id="Layer_1" xmlns="http://www.w3.org/2000/svg" xmlns:xlink="http://www.w3.org/1999/xlink" x="0px" y="0px"
	 width="300px" height="60px" viewBox="0 0 300 60" enable-background="new 0 0 300 60" xml:space="preserve">
<path fill="#FFFFFF" d="M156.914,29.892c-1.522,0-2.617,0.498-3.73,1.005v11.482c1.066,0.104,1.674,0.104,2.687,0.104
	c3.652,0,4.151-1.672,4.151-4.002v-5.486C160.023,31.275,159.451,29.892,156.914,29.892 M132.668,29.265
	c-2.533,0-3.11,1.389-3.11,3.109v0.965h6.219v-0.965C135.777,30.654,135.199,29.265,132.668,29.265 M85.699,41.218
	c0,1.359,0.642,2.066,2.061,2.066c1.522,0,2.423-0.495,3.534-1.005v-2.722h-3.329C86.39,39.557,85.699,39.849,85.699,41.218
	 M180.501,29.892c-2.537,0-3.416,1.383-3.416,3.103v6.284c0,1.726,0.879,3.111,3.416,3.111c2.53,0,3.416-1.386,3.416-3.111v-6.284
	C183.917,31.275,183.031,29.892,180.501,29.892 M73.264,48.261h-7.457V30.234h-3.728V24.02h3.728v-3.73
	c0-5.069,2.104-8.083,8.081-8.083h4.978v6.214h-3.11c-2.328,0-2.482,0.868-2.482,2.489l-0.01,3.11h5.638l-0.66,6.214h-4.978V48.261z
	 M98.755,48.308h-6.216l-0.268-1.57c-2.84,1.57-5.373,1.826-7.043,1.826c-4.56,0-6.986-3.041-6.986-7.248
	c0-4.961,2.831-6.733,7.897-6.733h5.156V33.51c0-2.534-0.291-3.277-4.191-3.277h-6.378l0.624-6.214h6.97
	c8.559,0,10.436,2.701,10.436,9.541V48.308z M119.893,30.689c-3.868-0.662-4.979-0.808-6.84-0.808c-3.344,0-4.354,0.738-4.354,3.571
	v5.364c0,2.836,1.01,3.574,4.354,3.574c1.861,0,2.971-0.146,6.84-0.812v6.058c-3.389,0.761-5.596,0.959-7.461,0.959
	c-8.008,0-11.19-4.205-11.19-10.282v-4.352c0-6.08,3.181-10.294,11.19-10.294c1.865,0,4.073,0.202,7.461,0.962V30.689z
	 M143.234,38.315h-13.676v0.501c0,2.836,1.011,3.574,4.353,3.574c3.006,0,4.839-0.146,8.7-0.812v6.058
	c-3.723,0.761-5.663,0.959-9.318,0.959c-8.008,0-11.193-4.205-11.193-10.282v-4.976c0-5.314,2.364-9.67,10.569-9.67
	c8.206,0,10.566,4.304,10.566,9.67L143.234,38.315L143.234,38.315z M167.48,38.43c0,5.872-1.68,10.156-11.861,10.156
	c-3.673,0-5.833-0.324-9.891-0.948V14.073l7.456-1.241v11.74c1.611-0.599,3.697-0.902,5.596-0.902c7.459,0,8.7,3.34,8.7,8.704V38.43
	z M191.382,38.558c0,5.066-2.095,9.979-10.856,9.979c-8.767,0-10.9-4.913-10.9-9.979v-4.891c0-5.067,2.133-9.981,10.9-9.981
	c8.762,0,10.856,4.914,10.856,9.981V38.558z M215.265,38.558c0,5.066-2.096,9.979-10.855,9.979c-8.767,0-10.901-4.913-10.901-9.979
	v-4.891c0-5.067,2.134-9.981,10.901-9.981c8.758,0,10.855,4.914,10.855,9.981V38.558z M239.779,48.261h-8.084l-6.835-11.393v11.393
	h-7.457V14.073l7.457-1.241v22.009l6.835-10.821h8.084l-7.463,11.808L239.779,48.261z M204.384,29.892
	c-2.533,0-3.412,1.383-3.412,3.103v6.284c0,1.726,0.879,3.111,3.412,3.111c2.53,0,3.424-1.386,3.424-3.111v-6.284
	C207.809,31.275,206.914,29.892,204.384,29.892"/>
<path fill="#FFFFFF" d="M244.036,44.01c1.256,0,2.256,1.022,2.256,2.3c0,1.297-1.001,2.308-2.267,2.308
	c-1.256,0-2.278-1.012-2.278-2.308c0-1.277,1.022-2.3,2.278-2.3H244.036z M244.025,44.368c-1.01,0-1.838,0.868-1.838,1.942
	c0,1.093,0.829,1.952,1.85,1.952c1.021,0.01,1.838-0.859,1.838-1.943c0-1.082-0.817-1.951-1.838-1.951H244.025z M243.595,47.65
	h-0.407v-2.567c0.214-0.031,0.418-0.06,0.724-0.06c0.39,0,0.644,0.08,0.798,0.194c0.154,0.113,0.233,0.286,0.233,0.532
	c0,0.337-0.223,0.541-0.498,0.624v0.02c0.224,0.041,0.378,0.243,0.428,0.621c0.061,0.4,0.123,0.554,0.164,0.636h-0.429
	c-0.061-0.082-0.124-0.318-0.174-0.653c-0.061-0.329-0.224-0.452-0.553-0.452h-0.284L243.595,47.65L243.595,47.65z M243.595,46.228
	h0.297c0.335,0,0.622-0.123,0.622-0.439c0-0.226-0.164-0.45-0.622-0.45c-0.134,0-0.227,0.01-0.297,0.02V46.228z"/>
</svg>
