<?xml version="1.0" encoding="utf-8"?>
<!-- Generator: Adobe Illustrator 18.0.0, SVG Export Plug-In . SVG Version: 6.00 Build 0)  -->
<!DOCTYPE svg PUBLIC "-//W3C//DTD SVG 1.1//EN" "http://www.w3.org/Graphics/SVG/1.1/DTD/svg11.dtd">
<svg version="1.1" id="Layer_1" xmlns="http://www.w3.org/2000/svg" xmlns:xlink="http://www.w3.org/1999/xlink" x="0px" y="0px"
	 width="300px" height="60px" viewBox="0 0 300 60" enable-background="new 0 0 300 60" xml:space="preserve">
<path fill="#3B5999" d="M156.9,29.9c-1.5,0-2.6,0.5-3.7,1v11.5c1.1,0.1,1.7,0.1,2.7,0.1c3.7,0,4.2-1.7,4.2-4V33
	C160,31.3,159.5,29.9,156.9,29.9 M132.7,29.3c-2.5,0-3.1,1.4-3.1,3.1v1h6.2v-1C135.8,30.7,135.2,29.3,132.7,29.3 M85.7,41.2
	c0,1.4,0.6,2.1,2.1,2.1c1.5,0,2.4-0.5,3.5-1v-2.7H88C86.4,39.6,85.7,39.8,85.7,41.2 M180.5,29.9c-2.5,0-3.4,1.4-3.4,3.1v6.3
	c0,1.7,0.9,3.1,3.4,3.1c2.5,0,3.4-1.4,3.4-3.1V33C183.9,31.3,183,29.9,180.5,29.9 M73.3,48.3h-7.5v-18h-3.7V24h3.7v-3.7
	c0-5.1,2.1-8.1,8.1-8.1h5v6.2h-3.1c-2.3,0-2.5,0.9-2.5,2.5l0,3.1h5.6l-0.7,6.2h-5V48.3z M98.8,48.3h-6.2l-0.3-1.6
	c-2.8,1.6-5.4,1.8-7,1.8c-4.6,0-7-3-7-7.2c0-5,2.8-6.7,7.9-6.7h5.2v-1.1c0-2.5-0.3-3.3-4.2-3.3h-6.4l0.6-6.2h7
	c8.6,0,10.4,2.7,10.4,9.5V48.3z M119.9,30.7c-3.9-0.7-5-0.8-6.8-0.8c-3.3,0-4.4,0.7-4.4,3.6v5.4c0,2.8,1,3.6,4.4,3.6
	c1.9,0,3-0.1,6.8-0.8v6.1c-3.4,0.8-5.6,1-7.5,1c-8,0-11.2-4.2-11.2-10.3V34c0-6.1,3.2-10.3,11.2-10.3c1.9,0,4.1,0.2,7.5,1V30.7z
	 M143.2,38.3h-13.7v0.5c0,2.8,1,3.6,4.4,3.6c3,0,4.8-0.1,8.7-0.8v6.1c-3.7,0.8-5.7,1-9.3,1c-8,0-11.2-4.2-11.2-10.3v-5
	c0-5.3,2.4-9.7,10.6-9.7c8.2,0,10.6,4.3,10.6,9.7L143.2,38.3L143.2,38.3z M167.5,38.4c0,5.9-1.7,10.2-11.9,10.2
	c-3.7,0-5.8-0.3-9.9-0.9V14.1l7.5-1.2v11.7c1.6-0.6,3.7-0.9,5.6-0.9c7.5,0,8.7,3.3,8.7,8.7V38.4z M191.4,38.6c0,5.1-2.1,10-10.9,10
	c-8.8,0-10.9-4.9-10.9-10v-4.9c0-5.1,2.1-10,10.9-10c8.8,0,10.9,4.9,10.9,10V38.6z M215.3,38.6c0,5.1-2.1,10-10.9,10
	c-8.8,0-10.9-4.9-10.9-10v-4.9c0-5.1,2.1-10,10.9-10c8.8,0,10.9,4.9,10.9,10V38.6z M239.8,48.3h-8.1l-6.8-11.4v11.4h-7.5V14.1
	l7.5-1.2v22l6.8-10.8h8.1l-7.5,11.8L239.8,48.3z M204.4,29.9c-2.5,0-3.4,1.4-3.4,3.1v6.3c0,1.7,0.9,3.1,3.4,3.1
	c2.5,0,3.4-1.4,3.4-3.1V33C207.8,31.3,206.9,29.9,204.4,29.9"/>
<path fill="#3B5999" d="M244,44c1.3,0,2.3,1,2.3,2.3c0,1.3-1,2.3-2.3,2.3c-1.3,0-2.3-1-2.3-2.3C241.7,45,242.8,44,244,44L244,44z
	 M244,44.4c-1,0-1.8,0.9-1.8,1.9c0,1.1,0.8,2,1.9,2c1,0,1.8-0.9,1.8-1.9C245.9,45.2,245.1,44.4,244,44.4L244,44.4z M243.6,47.6h-0.4
	v-2.6c0.2,0,0.4-0.1,0.7-0.1c0.4,0,0.6,0.1,0.8,0.2c0.2,0.1,0.2,0.3,0.2,0.5c0,0.3-0.2,0.5-0.5,0.6v0c0.2,0,0.4,0.2,0.4,0.6
	c0.1,0.4,0.1,0.6,0.2,0.6h-0.4c-0.1-0.1-0.1-0.3-0.2-0.7c-0.1-0.3-0.2-0.5-0.6-0.5h-0.3L243.6,47.6L243.6,47.6z M243.6,46.2h0.3
	c0.3,0,0.6-0.1,0.6-0.4c0-0.2-0.2-0.4-0.6-0.4c-0.1,0-0.2,0-0.3,0V46.2z"/>
</svg>
