<?xml version="1.0" encoding="utf-8"?>
<!-- Generator: Adobe Illustrator 18.0.0, SVG Export Plug-In . SVG Version: 6.00 Build 0)  -->
<!DOCTYPE svg PUBLIC "-//W3C//DTD SVG 1.1//EN" "http://www.w3.org/Graphics/SVG/1.1/DTD/svg11.dtd">
<svg version="1.1" id="svg4472" xmlns:svg="http://www.w3.org/2000/svg" xmlns:rdf="http://www.w3.org/1999/02/22-rdf-syntax-ns#"
	 xmlns="http://www.w3.org/2000/svg" xmlns:xlink="http://www.w3.org/1999/xlink" x="0px" y="0px" width="300px" height="100px"
	 viewBox="0 0 300 100" enable-background="new 0 0 300 100" xml:space="preserve">
<path id="path4423" fill="#AAAAAA" d="M53.3,48.6h12v16.9c-3.8,1.2-8.5,1.9-13.4,1.9c-20,0-31.7-17.1-31.7-33.8
	c0-16.4,10.6-27.9,25.4-27.9c9.4,0,14.8,3.2,19.7,7.6v5.5l9.2-9.2C68.7,5.8,60.3,2,48.3,2C22,2,10,20.9,10,36.3
	c0,22,16,35.3,36.2,35.3c9.8,0,18.4-1.5,28.5-4.3V49.9c0-0.9,0.4-1.5,1-2l3.2-3.2H57.3L53.3,48.6z"/>
<path id="path4425" fill="#AAAAAA" d="M107.2,25.7c-15.1,0-24.5,11.1-24.5,22.8c0,10.1,7.6,22.2,22.9,22.2c14.7,0,23.8-11.1,23.8-23
	C129.4,36.5,120.5,25.7,107.2,25.7L107.2,25.7z M104.7,28.9c10.7,0,15.4,13.9,15.4,23.8c0,14.8-11.1,15-12.4,15
	c-5.1,0-8.6-3.1-11.3-7.1c-2.3-3.7-4.6-10.6-4.6-17.3c0-6.7,2.2-10,5.6-12.4C100.4,29.2,103,28.9,104.7,28.9L104.7,28.9L104.7,28.9z
	"/>
<path id="path4429" fill="#AAAAAA" d="M206.2,25.7c-13.2,0-20.4,8.4-20.4,17.7c0,7.1,5.1,15.1,15.6,15.1h2.7c0,0-0.7,1.8-0.7,3.5
	c0,2.5,0.9,3.9,2.8,6.1c-18.1,1.1-25.4,8.4-25.4,16.3c0,6.9,6.6,13.6,20.4,13.6c16.4,0,24.8-9.1,24.8-18c0-6.3-3.1-9.7-11.1-15.7
	c-2.3-1.8-2.8-3-2.8-4.3c0-1.9,1.2-3.2,1.6-3.7c0.8-0.8,2.1-1.7,2.5-2.1c2.7-2.3,6.4-5.6,6.4-12.3c0-4.6-1.9-8.5-6.2-12.2h5.3l4-4
	L206.2,25.7L206.2,25.7z M202.6,28.6c2.4,0,4.4,0.8,6.5,2.6c2.3,2.1,6.1,7.8,6.1,14.8c0,7.6-5.9,9.7-9.1,9.7c-1.6,0-3.4-0.4-5-1.5
	c-3.5-2.3-7-8.4-7-15.6C194.1,32.1,198,28.6,202.6,28.6z M207.8,71c1,0,1.7,0.1,1.7,0.1s2.4,1.7,4,3c3.9,3.1,6.3,5.4,6.3,9.6
	c0,5.7-5.3,10.2-13.9,10.2c-9.5,0-16.7-4.4-16.7-11.6C189.3,76.3,194.2,71.2,207.8,71L207.8,71z"/>
<path id="path4433" fill="#AAAAAA" d="M228.7,69.3h18.2l2.8-2.8l-5.2-0.6c-1.4-0.2-2.2-1.4-2.2-2.6V8.5c0-1.1,0.5-1.6,0.9-2l3.3-3.3
	h-15.5l-4,4h6v56.8c0,0.8-0.3,1.4-0.8,1.9L228.7,69.3z"/>
<path id="path4435" fill="#AAAAAA" d="M271.5,25.7c-10.1,0-20.9,7.7-20.9,21.6c0,11.5,7.7,23.4,22.2,23.4c3.6,0,6.6-0.5,9.3-1.7
	c3-1.4,5.8-3.6,7.9-6.4c-4,2-7.2,3.3-11.5,3.3c-8.1,0-16-5.9-18.7-16.7l28.7-11.6C286.9,31.6,282.2,25.7,271.5,25.7L271.5,25.7
	L271.5,25.7z M269.6,28.8c5.4,0,9.4,4.5,9.4,8c0,1.1-0.7,1.7-2.1,2.3l-17.7,7.1c0,0-0.5-2.2-0.5-4.6C258.7,31.5,266,28.8,269.6,28.8
	L269.6,28.8z"/>
<path id="path4439" fill="#AAAAAA" d="M158.6,25.7c-15.1,0-24.5,11.1-24.5,22.8c0,10.1,7.6,22.2,22.9,22.2c14.7,0,23.8-11.1,23.8-23
	C180.7,36.5,171.9,25.7,158.6,25.7L158.6,25.7L158.6,25.7z M156.1,28.9c10.7,0,15.4,13.9,15.4,23.8c0,14.8-11.1,15-12.4,15
	c-5.1,0-8.6-3.1-11.3-7.1c-2.3-3.7-4.6-10.6-4.6-17.3c0-6.7,2.2-10,5.6-12.4C151.7,29.2,154.4,28.9,156.1,28.9L156.1,28.9
	L156.1,28.9z"/>
</svg>
