<?xml version="1.0" encoding="utf-8"?>
<!-- Generator: Adobe Illustrator 16.0.0, SVG Export Plug-In . SVG Version: 6.00 Build 0)  -->
<!DOCTYPE svg PUBLIC "-//W3C//DTD SVG 1.1//EN" "http://www.w3.org/Graphics/SVG/1.1/DTD/svg11.dtd">
<svg version="1.1" id="Layer_1" xmlns="http://www.w3.org/2000/svg" xmlns:xlink="http://www.w3.org/1999/xlink" x="0px" y="0px"
	 width="50px" height="50px" viewBox="0 0 50 50" enable-background="new 0 0 50 50" xml:space="preserve">
<path fill="#454545" d="M25.001,48.724c-13.082,0-23.725-10.643-23.725-23.723c0-13.081,10.643-23.725,23.725-23.725
	c13.08,0,23.723,10.644,23.723,23.725C48.724,38.081,38.081,48.724,25.001,48.724z M25.001,1.891
	c-12.743,0-23.11,10.367-23.11,23.11c0,12.742,10.367,23.109,23.11,23.109c12.742,0,23.109-10.367,23.109-23.109
	C48.11,12.258,37.743,1.891,25.001,1.891z"/>
<g>
	<path fill="#454545" d="M35.941,33.719c-3.102,0-5.623-2.521-5.623-5.621c0-3.101,2.521-5.621,5.623-5.621
		c3.099,0,5.621,2.521,5.621,5.621C41.562,31.197,39.04,33.719,35.941,33.719z M35.941,22.783c-2.932,0-5.316,2.384-5.316,5.314
		c0,2.93,2.385,5.314,5.316,5.314c2.93,0,5.313-2.385,5.313-5.314C41.255,25.167,38.871,22.783,35.941,22.783z"/>
	<path fill="#454545" d="M13.113,33.719c-3.099,0-5.62-2.521-5.62-5.621c0-3.101,2.521-5.621,5.62-5.621
		c3.101,0,5.622,2.521,5.622,5.621C18.735,31.197,16.214,33.719,13.113,33.719z M13.113,22.783c-2.93,0-5.314,2.384-5.314,5.314
		c0,2.93,2.385,5.314,5.314,5.314c2.932,0,5.316-2.385,5.316-5.314C18.43,25.167,16.045,22.783,13.113,22.783z"/>
	<path fill="#454545" d="M12.789,28.641l-0.218-0.217l0.411-0.412l4.23-11.113l-1.719-0.877v-0.094c0-0.025,0.005-0.256,0.266-0.473
		c0.373-0.314,1.292-0.601,3.552-0.184l-0.056,0.303c-2.255-0.417-3.035-0.107-3.3,0.115c-0.069,0.058-0.107,0.113-0.129,0.157
		l1.771,0.903l-4.375,11.455L12.789,28.641z"/>
	<polygon fill="#454545" points="35.28,28.924 25.092,28.924 15.553,21.564 15.741,21.321 25.197,28.617 34.861,28.617 
		32.348,20.605 16.52,19.268 16.545,18.963 32.578,20.317 	"/>
	<rect x="31.595" y="18.376" fill="#454545" width="5.44" height="0.308"/>
	
		<rect x="29.576" y="16.777" transform="matrix(0.7442 0.6679 -0.6679 0.7442 23.4 -13.8082)" fill="#454545" width="0.307" height="13.747"/>
	<path fill="#454545" d="M25.172,30.578c-1.197,0-2.172-0.975-2.172-2.173c0-1.197,0.975-2.171,2.172-2.171
		c1.199,0,2.174,0.974,2.174,2.171C27.346,29.604,26.371,30.578,25.172,30.578z M25.172,26.541c-1.028,0-1.865,0.836-1.865,1.864
		c0,1.029,0.837,1.866,1.865,1.866c1.029,0,1.867-0.837,1.867-1.866C27.039,27.377,26.201,26.541,25.172,26.541z"/>
	
		<rect x="25.238" y="31.351" transform="matrix(0.384 0.9233 -0.9233 0.384 45.3572 -4.974)" fill="#454545" width="2.337" height="0.307"/>
	
		<rect x="22.79" y="25.154" transform="matrix(0.3838 0.9234 -0.9234 0.3838 38.1328 -6.5302)" fill="#454545" width="2.338" height="0.307"/>
	<rect x="22.424" y="24.074" fill="#454545" width="1.984" height="0.307"/>
	<rect x="25.863" y="32.432" fill="#454545" width="1.983" height="0.307"/>
</g>
</svg>
