<?xml version="1.0" encoding="utf-8"?>
<!-- Generator: Adobe Illustrator 16.0.0, SVG Export Plug-In . SVG Version: 6.00 Build 0)  -->
<!DOCTYPE svg PUBLIC "-//W3C//DTD SVG 1.1//EN" "http://www.w3.org/Graphics/SVG/1.1/DTD/svg11.dtd">
<svg version="1.1" id="Layer_1" xmlns="http://www.w3.org/2000/svg" xmlns:xlink="http://www.w3.org/1999/xlink" x="0px" y="0px"
	 width="50px" height="50px" viewBox="0 0 50 50" enable-background="new 0 0 50 50" xml:space="preserve">
<g>
	<rect x="35.995" y="36.396" fill="#E14141" width="3.361" height="0.308"/>
	<rect x="17.863" y="36.396" fill="#E14141" width="13.874" height="0.308"/>
	<rect x="10.642" y="36.396" fill="#E14141" width="3.354" height="0.308"/>
	<path fill="#E14141" d="M17.429,39.171H14.4c-0.362,0-0.658-0.295-0.658-0.657v-4.431h0.307v4.431c0,0.193,0.157,0.351,0.352,0.351
		h3.028c0.193,0,0.352-0.157,0.352-0.351v-4.431h0.307v4.431C18.087,38.876,17.792,39.171,17.429,39.171z"/>
	<path fill="#E14141" d="M35.489,39.171H32.46c-0.361,0-0.657-0.295-0.657-0.657v-3.999h0.307v3.999
		c0,0.193,0.157,0.351,0.351,0.351h3.029c0.193,0,0.352-0.157,0.352-0.351v-4.167h0.307v4.167
		C36.147,38.876,35.853,39.171,35.489,39.171z"/>
	<path fill="#E14141" d="M35.937,34.46H14.063c-0.177,0-0.321-0.145-0.321-0.321V13.642c0-0.177,0.145-0.321,0.321-0.321h21.873
		c0.178,0,0.322,0.145,0.322,0.321v20.497C36.259,34.315,36.114,34.46,35.937,34.46z M14.063,13.627l-0.015,20.512l21.888,0.015
		c0.009,0,0.016-0.006,0.016-0.015V13.642L14.063,13.627z"/>
	<rect x="14.048" y="25.405" fill="#E14141" width="22.058" height="0.308"/>
	<path fill="#E14141" d="M36.105,15.271"/>
	<path fill="#E14141" d="M13.615,15.271"/>
	<path fill="#E14141" d="M14.049,26.385h-3.56v-2.551h3.56V26.385z M10.796,26.078h2.946v-1.937h-2.946V26.078z"/>
	<rect x="17.933" y="31.125" fill="#E14141" width="14.023" height="0.307"/>
	<rect x="17.933" y="32.528" fill="#E14141" width="14.023" height="0.307"/>
	<polygon fill="#E14141" points="31.245,31.058 30.938,31.058 30.938,26.892 19.313,26.892 19.313,31.058 19.007,31.058 
		19.007,26.585 31.245,26.585 	"/>
	<rect x="17.933" y="28.1" fill="#E14141" width="14.023" height="0.307"/>
	<rect x="17.933" y="29.761" fill="#E14141" width="14.023" height="0.307"/>
	<path fill="#E14141" d="M31.956,29.655"/>
	<path fill="#E14141" d="M36.105,25.766"/>
	<path fill="#E14141" d="M13.615,25.766"/>
	<rect x="14.048" y="15.326" fill="#E14141" width="22.058" height="0.308"/>
	<path fill="#E14141" d="M39.511,26.593h-3.559v-2.55h3.559V26.593z M36.259,26.286h2.945V24.35h-2.945V26.286z"/>
	<path fill="#E14141" d="M16.15,29.097c-0.796,0-1.442-0.646-1.442-1.441s0.646-1.443,1.442-1.443s1.442,0.648,1.442,1.443
		S16.946,29.097,16.15,29.097z M16.15,26.519c-0.626,0-1.136,0.51-1.136,1.137c0,0.626,0.51,1.135,1.136,1.135
		s1.136-0.509,1.136-1.135C17.286,27.028,16.776,26.519,16.15,26.519z"/>
	<path fill="#E14141" d="M33.976,29.097c-0.795,0-1.443-0.646-1.443-1.441s0.648-1.443,1.443-1.443s1.442,0.648,1.442,1.443
		S34.771,29.097,33.976,29.097z M33.976,26.519c-0.627,0-1.137,0.51-1.137,1.137c0,0.626,0.51,1.135,1.137,1.135
		c0.626,0,1.136-0.509,1.136-1.135C35.111,27.028,34.602,26.519,33.976,26.519z"/>
</g>
<path fill="#E14141" d="M25.001,48.724c-13.082,0-23.725-10.643-23.725-23.723c0-13.081,10.643-23.725,23.725-23.725
	c13.08,0,23.723,10.644,23.723,23.725C48.724,38.081,38.081,48.724,25.001,48.724z M25.001,1.891
	c-12.743,0-23.11,10.367-23.11,23.11c0,12.742,10.367,23.109,23.11,23.109c12.742,0,23.109-10.367,23.109-23.109
	C48.11,12.258,37.743,1.891,25.001,1.891z"/>
</svg>
