<?xml version="1.0" encoding="utf-8"?>
<!-- Generator: Adobe Illustrator 16.0.0, SVG Export Plug-In . SVG Version: 6.00 Build 0)  -->
<!DOCTYPE svg PUBLIC "-//W3C//DTD SVG 1.1//EN" "http://www.w3.org/Graphics/SVG/1.1/DTD/svg11.dtd">
<svg version="1.1" id="Layer_1" xmlns="http://www.w3.org/2000/svg" xmlns:xlink="http://www.w3.org/1999/xlink" x="0px" y="0px"
	 width="50px" height="50px" viewBox="0 0 50 50" enable-background="new 0 0 50 50" xml:space="preserve">
<g>
	<g>
		<path fill="#9AC43C" d="M26.874,16.362c-1.311,0-2.377-1.067-2.377-2.378s1.066-2.377,2.377-2.377
			c1.312,0,2.378,1.066,2.378,2.377S28.186,16.362,26.874,16.362z M26.874,11.914c-1.141,0-2.07,0.93-2.07,2.07
			c0,1.143,0.93,2.071,2.07,2.071c1.143,0,2.071-0.929,2.071-2.071C28.945,12.844,28.017,11.914,26.874,11.914z"/>
		<path fill="#9AC43C" d="M18.316,39.008c-0.22,0-0.43-0.061-0.606-0.176c-0.248-0.16-0.424-0.424-0.49-0.74
			c-0.088-0.41,0.009-0.872,0.264-1.265l3.376-5.203c0.012-0.021,0.026-0.039,0.043-0.059l0.85-5.316
			c-0.005-0.144,0.011-0.302,0.046-0.455l1.061-4.815l-2.214,1.171l-0.688,3.646c-0.105,0.568-0.658,0.962-1.246,0.853
			c-0.578-0.109-0.961-0.669-0.852-1.248l0.748-3.963c0.059-0.314,0.258-0.584,0.545-0.739c0.061-0.052,0.146-0.108,0.234-0.157
			l4.791-2.533c0.232-0.18,0.513-0.321,0.811-0.405c0.16-0.058,0.336-0.087,0.51-0.087h0.046c0.022-0.001,0.057-0.002,0.091-0.002
			c0.166,0,0.33,0.018,0.49,0.053c0.33,0.072,0.635,0.214,0.905,0.42c0.226,0.105,0.437,0.322,0.569,0.592l0.049,0.103
			c0.073,0.115,0.145,0.263,0.205,0.421l2.009,4.136l3.156,1.395c0.499,0.224,0.714,0.842,0.477,1.38
			c-0.177,0.397-0.554,0.655-0.962,0.655l0,0c-0.132,0-0.26-0.027-0.379-0.08l-3.391-1.5c-0.264-0.118-0.457-0.352-0.535-0.645
			c-0.031-0.048-0.061-0.097-0.086-0.148l-0.679-1.398l-0.892,4.042l3.625,4.33c0.064,0.078,0.117,0.158,0.16,0.227
			c0.137,0.172,0.233,0.377,0.279,0.593l1.107,5.274c0.154,0.738-0.281,1.461-0.973,1.61c-0.697,0.142-1.383-0.356-1.537-1.083
			l-1.08-5.156l-3.476-4.152c-0.231-0.103-0.437-0.173-0.645-0.221c-0.025-0.005-0.051-0.011-0.076-0.016l-0.61,3.812
			c-0.02,0.128-0.064,0.242-0.101,0.327c-0.04,0.171-0.122,0.359-0.235,0.534l-3.379,5.204
			C19.319,38.706,18.814,39.008,18.316,39.008z M23.3,20.396l-1.203,5.464c-0.029,0.131-0.043,0.265-0.04,0.411l-0.864,5.426
			l-0.028,0.033c-0.023,0.027-0.034,0.04-0.044,0.057l-3.379,5.207c-0.211,0.325-0.292,0.702-0.223,1.034
			c0.052,0.239,0.176,0.428,0.359,0.547c0.128,0.083,0.275,0.126,0.438,0.126c0.396,0,0.801-0.248,1.059-0.646l3.38-5.205
			c0.092-0.146,0.161-0.303,0.201-0.465c0.053-0.126,0.075-0.201,0.087-0.275l0.666-4.154l0.167,0.051
			c0.073,0.021,0.146,0.038,0.223,0.054c0.24,0.056,0.475,0.136,0.737,0.256l0.054,0.041l3.548,4.239l1.097,5.23
			c0.119,0.564,0.651,0.95,1.174,0.846c0.524-0.114,0.854-0.674,0.734-1.248l-1.106-5.273c-0.036-0.17-0.114-0.332-0.229-0.48
			c-0.051-0.078-0.093-0.143-0.145-0.204l-3.723-4.446l1.113-5.052l1.066,2.192c0.023,0.048,0.051,0.093,0.078,0.135l0.021,0.05
			c0.051,0.211,0.186,0.379,0.369,0.461l3.39,1.501c0.342,0.15,0.771-0.044,0.937-0.419c0.168-0.384,0.024-0.82-0.32-0.975
			l-3.26-1.44l-2.064-4.25c-0.058-0.153-0.12-0.281-0.19-0.395l-0.056-0.115c-0.103-0.208-0.264-0.375-0.454-0.467
			c-0.26-0.195-0.524-0.317-0.812-0.381c-0.166-0.035-0.339-0.049-0.514-0.043h-0.047c-0.14,0-0.281,0.024-0.418,0.072
			c-0.27,0.076-0.514,0.201-0.737,0.371l-4.812,2.546c-0.07,0.038-0.14,0.085-0.209,0.142c-0.229,0.127-0.373,0.318-0.414,0.541
			l-0.748,3.963c-0.076,0.413,0.195,0.812,0.606,0.889c0.418,0.079,0.813-0.201,0.889-0.606l0.716-3.792L23.3,20.396z"/>
		<rect x="11.941" y="35.322" fill="#9AC43C" width="6.603" height="0.307"/>
		<rect x="31.189" y="35.322" fill="#9AC43C" width="5.989" height="0.307"/>
		<rect x="21.233" y="35.322" fill="#9AC43C" width="7.65" height="0.307"/>
	</g>
</g>
<path fill="#9AC43C" d="M25.001,48.724c-13.082,0-23.725-10.643-23.725-23.723c0-13.081,10.643-23.725,23.725-23.725
	c13.08,0,23.723,10.644,23.723,23.725C48.724,38.081,38.081,48.724,25.001,48.724z M25.001,1.891
	c-12.743,0-23.11,10.367-23.11,23.11c0,12.742,10.367,23.109,23.11,23.109c12.742,0,23.109-10.367,23.109-23.109
	C48.11,12.258,37.743,1.891,25.001,1.891z"/>
</svg>
